<?xml version="1.0"?>
<svg width="727" height="715" xmlns="http://www.w3.org/2000/svg" xmlns:svg="http://www.w3.org/2000/svg" enable-background="new 0 0 727 715" version="1.1" xml:space="preserve">
 <g class="layer" display="inline">
  <title>Layer 1</title>
  <path d="m244.6,345.23c3.27,-27.87 14.04,-52.07 34.4,-71.41c17.31,-16.44 37.51,-28.19 61.16,-32.28c22.17,-3.83 44,-1.7 65.15,7.17c16.92,7.09 31.55,17.11 44.06,30.32c6.56,6.93 11.77,14.83 16.59,23.17c4.97,8.6 8.02,17.73 10.86,27.43c-0.11,0.56 -0.18,0.72 -0.12,1.13c0.9,1.55 1.42,2.93 1.29,4.88c1.19,3.21 -1.1,3.37 -2.53,2.96c-6.72,-1.93 -13.1,-0.39 -19.91,1.33c-4.36,-3.17 -4.3,-7.94 -5.41,-12.56c0,-1.06 1.15,-1.75 -0.26,-2.58c-0.88,-0.51 -1.26,-1.03 -1.39,-2.05c0.07,-0.75 0.7,-1.15 0.47,-1.36c-0.47,-0.44 0.29,-0.05 -0.71,-0.07c-3.01,-2.73 -4.35,-6.2 -6.27,-9.29c-11.59,-18.72 -27.32,-32.73 -48.12,-40.12c-35.75,-12.69 -78.43,-3.89 -104.08,29.52c-7.7,10.02 -13.18,21.08 -17.98,32.95c-2.72,1.07 -7.46,-0.69 -5.53,5c0.98,-1.58 1.38,-3.89 4.27,-3.8c1.2,0.84 1.11,1.72 0.53,2.94c-0.14,0.79 -1.46,0.25 -0.68,1.44c0.51,1.16 0.41,2.02 -0.01,3.19c-0.46,1.17 -0.47,2.05 -0.25,3.32c-0.43,7.5 -1.28,14.59 -2.38,22.02c-2.18,2.41 -4.52,1.44 -6.73,1.07c-9.74,-1.68 -13.72,2.68 -11.57,12.74c0.61,2.87 1.79,5.77 -0.76,8.59c-3.23,-8.03 -4.69,-16.38 -4.61,-25.43c1.35,-2.18 3.91,-1.09 5.41,-2.92c-1.45,-1.55 -3.54,-0.06 -5.22,-1.31c-1.95,-2.63 0.33,-5.04 -0.19,-7.83c2.7,-2.21 3.92,-0.06 5.31,1.5c0.9,0.99 1.72,2.19 3.28,1.62c1.43,-0.53 1.64,-1.93 1.89,-3.25c0.89,-4.79 -2,-9.33 -0.96,-14.16c0.16,-0.76 -0.83,-1.38 -1.77,-1.34c-1.67,0.08 -2.15,1.29 -2.43,2.65c-0.53,2.57 -0.63,5.53 -4.8,4.82z" fill="#F8FAF8" id="svg_2" opacity="1"/>
  <path d="m454.93,433.68c-8.4,13.11 -20.19,22.34 -33.1,30.15c-14.04,8.48 -29.34,13.87 -45.59,15.93c-16.18,2.04 -32.15,-0.04 -47.89,-4.2c-6.71,-1.77 -12.78,-4.97 -19.17,-8.17c-1.6,-2.22 -4,-2.86 -5.64,-4.5c-1.84,-1.84 -3.1,-3.89 -2.27,-6.62c0.82,-2.66 2.81,-4.12 5.46,-4.35c3.09,-0.26 5.86,-0.83 7.74,-4.12c1.32,-0.72 2.33,-0.69 3.62,0.04c3.41,6.34 9.65,4.88 15.09,6.13c1.01,-0.23 1.68,-0.37 2.7,-0.62c0.82,-0.1 1.28,-0.08 2.08,0.13c2.18,1.58 4.46,2.04 6.93,2.95c3.86,5.44 7.13,5.5 13.95,0.24c0.8,-0.3 1.28,-0.32 2.11,-0.12c1.06,0.52 1.54,1.7 2.3,1.52c10.05,-2.36 20.85,-1.37 30.56,-6.85c2.52,-0.83 4.71,-1.54 6.6,-3.54c2.92,-3.07 6.55,-4.46 9.7,-6.57c5.76,-3.89 11.57,-7.69 16.35,-12.82c1.12,-1.2 2.32,-2.39 4.42,-2.68c2.92,1.32 5.39,1.4 8.34,0.9c6.42,-1.07 11.03,3.05 15.71,7.17z" fill="#DFE3E0" id="svg_3" opacity="1"/>
  <path d="m535.57,245.59c-16.04,10.37 -32.07,20.06 -48.23,29.53c-0.99,0.58 -2.17,1.05 -2.87,1.89c-3.16,3.82 -4.69,2.7 -7.35,-1.04c-2.1,-2.95 -1.04,-3.7 0.9,-5.14c13.8,-10.2 27.72,-20.25 41.36,-30.67c14.18,-10.84 28.22,-21.86 42.06,-33.13c16.66,-13.55 33.87,-26.35 51.34,-38.82c6.15,-4.39 6.18,-4.26 10.29,2.24c1.23,1.94 2.68,3.78 4.25,5.46c4.77,5.09 4.85,5.11 -0.79,8.66c-26.07,16.42 -51.75,33.41 -76.64,51.59c-4.51,3.3 -9.34,6.16 -14.32,9.43z" fill="#F5F7F5" id="svg_4" opacity="1"/>
  <path d="m485.83,290.38c-0.34,-2.66 1.77,-2.85 3.12,-3.63c27.43,-15.92 55.13,-31.39 82.26,-47.81c22.5,-13.63 44.93,-27.35 67.78,-40.39c2.77,-1.58 3.65,-1.26 4.49,1.76c1.27,4.63 3.52,8.92 6.83,12.41c2.17,2.29 1.27,2.96 -0.93,4.07c-15.36,7.74 -30.69,15.53 -46,23.38c-22.22,11.38 -44.33,22.99 -66.66,34.17c-12.44,6.23 -25.22,11.79 -37.85,17.65c-0.89,0.42 -1.79,0.8 -2.64,1.29c-6.18,3.59 -6.17,3.6 -10.4,-2.9z" fill="#F3F6F3" id="svg_5" opacity="1"/>
  <path d="m551.05,197.08c-10.47,8.89 -20.6,17.64 -30.9,26.19c-13.6,11.29 -27.32,22.41 -40.99,33.61c-2.93,2.41 -5.8,4.9 -8.81,7.2c-0.83,0.63 -1.96,3.53 -3.08,0.67c-0.98,-2.47 -7.04,-3.44 -2.95,-7.36c17.14,-16.42 34.59,-32.52 51.7,-48.98c13.67,-13.15 26.69,-27 40.58,-39.9c11.93,-11.08 22.71,-23.34 35.16,-33.87c1.92,-1.62 2.42,-1.64 3.88,0.47c2.81,4.07 5.97,7.91 10.25,10.67c1.95,1.26 2.59,2.14 0.07,4.26c-18.35,15.45 -36.45,31.17 -54.91,47.04z" fill="#F5F7F7" id="svg_6" opacity="1"/>
  <path d="m653.3,258.2c-31.43,11.54 -62.48,23.02 -93.61,34.24c-19.54,7.04 -39.25,13.6 -59.08,19.79c-6.11,1.91 -4.97,-3.33 -6.48,-5.54c-1.96,-2.89 1.69,-2.9 3.01,-3.4c29.83,-11.17 59.01,-23.9 88.12,-36.76c23.88,-10.55 47.77,-21.08 71.58,-31.79c3.07,-1.38 4.07,-0.61 5.1,2.22c1.69,4.62 3.56,9.21 5.77,13.61c1.12,2.22 0.05,2.73 -1.48,3.26c-4.17,1.44 -8.38,2.8 -12.93,4.37z" fill="#F1F4F2" id="svg_7" opacity="1"/>
  <path d="m193.45,249.52c-29.21,-18.85 -56.47,-39.92 -85.56,-58.31c-4.16,-2.63 -8.54,-4.88 -12.45,-7.99c-2.52,-1.99 -2.98,-3.2 -0.66,-5.36c3.3,-3.07 5.46,-7.01 7.87,-10.74c1.4,-2.17 2.72,-2.31 4.72,-0.76c16.22,12.51 32.53,24.9 48.72,37.45c21.01,16.28 41.86,32.8 63.57,48.14c9.17,6.48 17.75,13.69 26.8,20.3c4.83,3.52 -0.45,5.45 -1.29,7.71c-1.29,3.49 -2.6,-0.28 -3.58,-0.88c-16,-9.7 -31.91,-19.54 -48.14,-29.56z" fill="#F5F7F7" id="svg_8" opacity="1"/>
  <path d="m223.69,224.31c10.77,10.43 21.34,20.57 31.79,30.82c1.72,1.69 4.51,3.46 3.34,6.3c-2.04,4.96 -3.35,4.84 -7.52,1.42c-10.35,-8.49 -21,-16.6 -31.33,-25.1c-10.36,-8.52 -20.55,-17.25 -30.69,-26.04c-20.26,-17.58 -39.99,-35.78 -61.08,-52.41c-3.64,-2.87 -6.7,-6.48 -10.09,-9.68c-1.31,-1.25 -1.02,-2.01 0.2,-3.19c3.89,-3.81 7.78,-7.65 11.36,-11.75c1.18,-1.35 1.42,-1.69 2.79,-0.33c24.38,24.33 48.8,48.63 73.26,72.87c5.79,5.74 11.81,11.24 17.97,17.09z" fill="#F6F8F7" id="svg_9" opacity="1"/>
  <path d="m174.44,268.55c-17.31,-9.2 -34.29,-18.24 -51.32,-27.17c-16.89,-8.84 -33.58,-18.06 -51.67,-25.52c5.78,-5.45 7.54,-12.45 10.65,-18.75c8.08,6.69 17.59,10.32 26.13,15.58c33.17,20.44 66.63,40.4 100.54,59.57c9.29,5.25 18.81,10.06 27.58,16.17c1.26,0.89 3.42,2.07 0.89,3.51c-1.85,1.04 -0.25,6.07 -5.4,3.54c-18.86,-9.26 -38.04,-17.87 -57.4,-26.93z" fill="#F4F7F6" id="svg_10" opacity="1"/>
  <path d="m558.8,392.02c-16.63,-2.87 -33.09,-3.93 -49.12,-7.78c-0.79,-0.19 -1.64,-0.17 -2.46,-0.23c-4.88,-0.32 -6.58,-2.96 -5.18,-7.64c0.54,-1.79 1.72,-1.25 2.75,-1.16c17.63,1.54 35.25,3.46 52.91,4.58c10.25,0.65 20.51,1.13 30.72,2.21c22.36,2.36 44.83,3.31 67.11,6.68c9.43,1.42 18.94,2.86 28.51,3.36c2.5,0.13 3.43,0.7 2.95,3.3c-0.92,5.03 -1.71,10.09 -2.43,15.15c-0.35,2.42 -1.46,2.93 -3.77,2.41c-11.53,-2.58 -23.02,-5.36 -34.64,-7.45c-17.32,-3.12 -34.75,-5.65 -52.12,-8.55c-11.56,-1.93 -23.32,-2.31 -35.23,-4.88z" fill="#EDF0EE" id="svg_11" opacity="1"/>
  <path d="m133.01,264.09c31.61,14.21 63.38,27.09 95.06,40.17c1.21,0.5 4.35,0.99 2.52,2.96c-1.64,1.77 -0.95,6.59 -5.49,5.13c-16.21,-5.22 -32.52,-10.17 -48.57,-15.84c-25.3,-8.93 -50.42,-18.36 -75.61,-27.58c-13.69,-5.01 -27.35,-10.09 -41.09,-14.94c-2.96,-1.04 -4.06,-1.83 -2.16,-4.97c2.47,-4.06 4.27,-8.56 5.07,-13.26c0.48,-2.8 1.49,-2.57 3.47,-1.67c15.25,6.91 30.54,13.74 45.8,20.66c6.86,3.11 14.07,5.46 21,9.34z" fill="#F3F6F3" id="svg_12" opacity="1"/>
  <path d="m623.97,369.02c-29.1,-0.44 -57.72,-0.56 -86.31,-1.52c-10.24,-0.34 -20.55,0.15 -30.78,-1.36c-4.08,-0.6 -3.11,-3.54 -3.81,-5.67c-0.9,-2.73 1.65,-2.78 3.24,-3.09c1.77,-0.36 3.64,-0.31 5.47,-0.29c20.11,0.28 40.16,-1.5 60.23,-2.23c20.76,-0.75 41.5,-1.74 62.27,-1.91c16.79,-0.14 33.58,-0.55 50.37,-1.03c3.2,-0.09 4.34,0.67 4.11,4.05c-0.29,4.14 -0.12,8.33 0.19,12.48c0.2,2.75 -0.8,3.47 -3.36,3.27c-17.19,-1.33 -34.49,-0.33 -51.64,-2.62c-3.11,-0.41 -6.32,-0.07 -9.98,-0.08z" fill="#EEF2F0" id="svg_13" opacity="1"/>
  <path d="m545.07,333.13c23.41,-3.4 46.39,-6.66 69.34,-10.19c14.8,-2.28 29.53,-5.02 44.3,-7.46c7.33,-1.21 14.69,-2.18 22.03,-3.33c2.74,-0.43 4.2,-0.11 4.26,3.36c0.07,4.08 0.95,8.16 1.67,12.21c0.43,2.37 0.13,3.85 -2.66,4.11c-10.36,1 -20.69,2.46 -31.07,3.04c-13.89,0.78 -27.6,3 -41.41,4.38c-10.7,1.07 -21.44,1.63 -32.13,2.69c-16.28,1.63 -32.56,3.28 -48.85,4.7c-8.09,0.7 -16.23,0.95 -24.35,1.29c-4.12,0.18 -2.74,-3.15 -3.26,-5.34c-0.52,-2.21 0.39,-2.26 2.32,-2.71c13,-3.03 26.39,-3.65 39.81,-6.75z" fill="#EFF3F0" id="svg_14" opacity="1"/>
  <path d="m371.6,46.66c-1.28,8.91 -0.42,17.41 -0.64,25.88c-0.52,19.45 -0.8,38.92 -1.35,58.38c-0.43,15.26 -0.62,30.56 -1.83,45.77c-0.96,11.93 -0.25,23.9 -1.66,35.81c-0.41,3.54 -2.41,3.3 -4.75,3.52c-3.21,0.29 -2.29,-2.04 -2.37,-3.66c-1.33,-28.85 -3.12,-57.67 -4.23,-86.54c-1.18,-30.93 -1.76,-61.84 -1.85,-92.77c-0.01,-3.1 0.82,-4.53 3.85,-3.56c3.85,1.23 7.58,0.04 11.34,-0.22c2.74,-0.19 3.87,0.35 3.65,3.43c-0.32,4.47 -0.13,8.99 -0.16,13.96z" fill="#F5F7F7" id="svg_15" opacity="1"/>
  <path d="m483.12,206.1c28.27,-33.32 54.96,-67.52 83.65,-100.39c3.49,4.52 6.62,9.76 12.82,11.8c2.19,0.72 0.88,2.28 -0.15,3.47c-4.03,4.62 -7.83,9.44 -12.03,13.89c-14.27,15.11 -28.68,30.08 -43.02,45.12c-21.58,22.62 -43.16,45.23 -64.71,67.88c-1.48,1.54 -2.74,3.28 -4.27,5.14c-0.98,-1.36 -1.58,-3.09 -2.74,-3.65c-3.84,-1.87 -1.94,-3.95 -0.4,-5.83c10.19,-12.41 19.89,-25.22 30.85,-37.43z" fill="#F5F7F7" id="svg_16" opacity="1"/>
  <path d="m263.71,234.29c1.86,2.35 3.51,4.41 5.07,6.54c4.8,6.55 4.78,6.56 -1.28,11.92c-10.3,-12.88 -22.43,-24.04 -33.94,-35.77c-18.95,-19.33 -36.72,-39.73 -54.97,-59.7c-8.84,-9.67 -18.04,-19.03 -26.66,-28.92c-2.5,-2.87 -6.46,-5.46 -7.1,-8.7c-0.83,-4.12 5.2,-4.11 7.51,-6.91c1.94,-2.36 3.88,-6.25 6.65,-6.09c1.96,0.1 3.69,4.15 5.53,6.43c17.8,21.96 35.87,43.69 53.25,65.99c13.53,17.34 28.21,33.79 42.36,50.65c1.17,1.38 2.22,2.86 3.58,4.56z" fill="#F6F8F7" id="svg_17" opacity="1"/>
  <path d="m620.33,288.43c17.44,-4.9 34.29,-10.48 51.49,-14.82c3.49,-0.88 3.74,-0.01 4.2,2.92c0.71,4.54 1.89,9.04 3.27,13.42c0.63,1.99 0.52,2.63 -1.58,2.97c-18.32,2.98 -36.13,8.3 -54.27,12.11c-29.55,6.2 -58.91,13.33 -88.59,18.98c-9.97,1.89 -19.89,4.05 -29.76,6.42c-2.02,0.48 -2.84,0.45 -3.02,-1.53c-0.23,-2.42 -1.95,-4.06 -3.3,-6.45c13.58,-3.63 26.97,-7.03 40.26,-10.79c24.46,-6.93 48.87,-14.08 73.31,-21.11c2.52,-0.73 5.1,-1.26 7.99,-2.12z" fill="#F1F4F2" id="svg_18" opacity="1"/>
  <path d="m71.75,353.41c28.7,-0.69 57.11,0.16 85.52,1.53c6.8,0.32 13.61,0.78 20.39,0.89c13.62,0.23 27.17,1.56 40.76,2.12c1.84,0.08 2.92,0.42 2.41,2.5c-0.53,2.16 0.68,5.5 -3.24,5.5c-4.66,0 -9.27,0.61 -13.9,0.81c-14.28,0.6 -28.57,0.91 -42.86,1.23c-17.46,0.4 -34.93,0.37 -52.37,1.1c-23.87,0.99 -47.71,2.52 -72.02,3.75c-0.62,-0.17 -0.78,-0.26 -1.08,-0.59c-0.17,-6.27 -0.2,-12.3 -0.17,-18.8c0.14,-0.63 0.23,-0.79 0.56,-1.1c2.62,-0.18 4.99,-0.21 7.81,-0.14c2.2,2.21 4.62,2.91 7.23,3.34c1.98,0.32 2.62,-0.64 3.01,-2.59c1.96,-0.16 3.7,-0.05 5.81,0.13c1.37,2.21 2.61,3.71 5.3,2.46c2.08,-0.97 4.64,-0.41 6.84,-2.14z" fill="#F5F7F7" id="svg_19" opacity="1"/>
  <path d="m123.97,294.11c22.96,7.02 45.81,12.93 68.63,18.97c10.44,2.76 20.76,5.99 31.12,9.05c0.57,0.17 1.3,0.61 1.48,1.1c0.58,1.57 -3.72,6.17 -5.4,5.95c-16.32,-2.11 -32.34,-5.76 -48.4,-9.21c-26.33,-5.66 -52.66,-11.33 -78.98,-17.02c-14.93,-3.22 -29.62,-7.5 -44.69,-10.11c-1.87,-0.33 -3.21,-1.05 -2.4,-3.32c1.99,-5.58 2.72,-11.48 4.03,-17.42c24.87,7.35 49.54,14.64 74.61,22.01z" fill="#F3F6F3" id="svg_20" opacity="1"/>
  <path d="m187.81,334.1c9.83,1.67 19.22,3.32 28.62,4.9c2.14,0.36 5.25,-0.08 5.1,2.88c-0.15,2.98 0.13,6.89 -5.6,6.13c-16.55,-2.17 -33.27,-2.53 -49.83,-4.85c-9.99,-1.39 -20.17,-1.31 -30.23,-2.2c-12.34,-1.08 -24.65,-2.53 -36.99,-3.74c-8.4,-0.81 -16.81,-1.47 -25.21,-2.21c-11.55,-1.02 -23.09,-2.08 -34.64,-3.02c-1.94,-0.16 -2.27,-1.07 -1.83,-2.59c1.65,-5.76 1.94,-11.68 1.97,-18.16c18.69,4.74 37.61,6.16 56.23,9.52c13.45,2.43 27.05,4.05 40.59,5.99c17.12,2.46 34.25,4.87 51.82,7.35z" fill="#F3F6F3" id="svg_21" opacity="1"/>
  <path d="m428.74,120.79c-8.64,26.67 -17.22,52.94 -25.72,79.23c-1.81,5.6 -3.47,11.25 -4.96,16.93c-0.66,2.51 -1.59,3.74 -4.39,3.08c-3.1,-0.73 -2.78,-2.84 -2.35,-5.04c6.84,-34.76 15.15,-69.18 23.97,-103.5c5.94,-23.13 11.27,-46.42 16.83,-69.65c0.66,-2.78 1.32,-4.39 4.76,-2.67c3.19,1.6 6.68,2.78 10.37,2.93c4.56,0.18 5.46,2.32 4.22,6.59c-5.23,18.11 -11.07,36.02 -16.93,53.93c-1.94,5.91 -3.81,11.85 -5.8,18.17z" fill="#F6F8F7" id="svg_22" opacity="1"/>
  <path d="m381.98,214c-1.43,3.36 -4.12,2.06 -6.05,1.79c-1.84,-0.25 -0.99,-2.56 -0.88,-3.85c1.2,-13.84 2.8,-27.65 3.76,-41.51c0.79,-11.58 1.92,-23.1 3.21,-34.63c1.62,-14.42 3.28,-28.84 4.82,-43.28c1.48,-13.82 2.86,-27.65 4.2,-41.48c0.53,-5.44 0.93,-10.9 1.17,-16.35c0.12,-2.6 0.84,-3.3 3.53,-2.74c4.52,0.95 9.13,1.63 13.73,1.94c2.42,0.16 2.81,1.07 2.45,3.03c-2.98,16.03 -4.72,32.26 -7.49,48.34c-2.92,17.03 -5.62,34.12 -8.54,51.16c-3.55,20.73 -7.53,41.38 -11.3,62.07c-0.91,5.01 -1.72,10.04 -2.61,15.51z" fill="#F6F8F7" id="svg_23" opacity="1"/>
  <path d="m241.84,72.32c-2.05,-4.35 -3.76,-8.45 -5.84,-12.36c-1.39,-2.6 -0.51,-3.24 1.96,-4c3.76,-1.14 7.62,-2.38 10.94,-4.39c3.68,-2.24 4.73,-0.61 5.92,2.44c4.95,12.71 9.73,25.5 15.09,38.03c15.33,35.8 28.41,72.45 41.43,109.11c1.7,4.79 2.75,9.83 4.7,14.51c2.02,4.85 1.73,8.07 -4.54,9.06c-14.49,-32.61 -28.91,-65.56 -43.77,-98.31c-7.53,-16.58 -15.86,-32.8 -23.81,-49.2c-0.71,-1.47 -1.27,-3.03 -2.08,-4.89z" fill="#F4F7F6" id="svg_24" opacity="1"/>
  <path d="m304.13,89.69c8.22,30.86 16.28,61.34 22.49,92.24c2.26,11.25 4.58,22.52 6.43,33.86c0.27,1.65 1.16,3.53 -1.69,3.11c-1.53,-0.22 -3.36,2.52 -4.68,-1.5c-8.08,-24.45 -14.8,-49.31 -22.57,-73.84c-4.09,-12.92 -8.42,-25.76 -12.5,-38.68c-6.44,-20.43 -12.77,-40.9 -19.2,-61.5c5.49,-0.86 10.65,-2.54 15.68,-4.48c2.64,-1.02 3.54,-1.13 4.27,2.03c3.72,16.16 7.73,32.25 11.77,48.76z" fill="#F4F7F6" id="svg_25" opacity="1"/>
  <path d="m314.24,48.79c-0.74,-3.99 -1.42,-7.55 -2.05,-11.11c-0.37,-2.07 -0.57,-3.45 2.59,-3.87c4.7,-0.62 9.56,-0.61 14.09,-2.42c1.96,-0.79 2.91,-0.2 3.11,2.21c1.58,18.98 3.04,37.97 5.06,56.91c1.88,17.56 4.45,35.06 6.59,52.59c0.89,7.23 1.62,14.48 2.13,21.73c1.11,16.05 2.91,32.05 3.2,48.15c0.03,1.44 0.96,3.66 -1.71,3.91c-2.02,0.19 -3.84,0.85 -4.42,-2.71c-2.66,-16.38 -5.81,-32.68 -8.81,-49.01c-3.86,-21.04 -8,-42.04 -11.56,-63.14c-2.86,-16.92 -5.01,-33.96 -7.5,-50.95c-0.09,-0.64 -0.42,-1.24 -0.72,-2.29z" fill="#F5F7F7" id="svg_26" opacity="1"/>
  <path d="m268.63,205.4c6.02,9.64 12.42,18.6 17.63,28.34c1.92,3.58 -0.22,4.53 -2.08,6.28c-2.72,2.56 -3.36,-0.43 -4.28,-1.71c-14.44,-20.06 -30.38,-38.98 -44.79,-59.08c-13.33,-18.59 -26.75,-37.11 -40.3,-55.53c-6.24,-8.47 -12.67,-16.88 -19.43,-24.99c-2.65,-3.18 -3.11,-5.41 1.6,-7c2.63,-0.89 5.14,-2.48 6.84,-4.77c2.38,-3.18 4.13,-2.08 5.91,0.46c7.29,10.37 14.93,20.51 21.78,31.17c9.42,14.67 19.27,29.05 28.7,43.71c9.25,14.38 18.5,28.75 28.42,43.12z" fill="#F5F7F7" id="svg_27" opacity="1"/>
  <path d="m449.94,143.01c-9.36,20.26 -18.68,40.13 -27.94,60.02c-3.11,6.69 -5.98,13.48 -9.2,20.1c-0.39,0.8 -0.08,3.5 -2.74,2.28c-1.72,-0.79 -3.49,-1.35 -3.05,-3.72c0.39,-2.08 0.8,-4.18 1.49,-6.18c8.6,-25.03 17.12,-50.09 27.5,-74.46c12.13,-28.49 23.65,-57.23 34.74,-86.14c1.62,-4.22 3.17,-5.26 7.18,-2.47c3.32,2.32 7.14,4.09 10.96,5.48c2.54,0.92 2.06,1.74 1.16,3.52c-9.61,19.2 -19.18,38.43 -28.69,57.68c-3.86,7.8 -7.56,15.67 -11.41,23.89z" fill="#F5F7F7" id="svg_28" opacity="1"/>
  <path d="m533.69,119.73c-31.04,41.01 -61.82,81.76 -92.57,122.48c-5.6,-5.29 -5.86,-3.79 -0.43,-12.93c7.55,-12.73 15.92,-24.98 24.11,-37.32c21.96,-33.05 44.01,-66.03 66.01,-99.05c1.91,-2.87 3.29,-7.46 5.8,-8.2c2.72,-0.8 5.12,3.87 8.07,5.58c2.26,1.31 4.46,2.71 7.49,3.03c-5.83,9.18 -11.3,18.17 -18.48,26.41z" fill="#F5F7F7" id="svg_29" opacity="1"/>
  <path d="m272.39,191.6c-18.07,-30.73 -35.86,-61.2 -53.79,-91.58c-4.34,-7.36 -8.88,-14.63 -13.85,-21.56c-2.15,-3 -1.08,-3.66 1.39,-4.87c2.5,-1.24 5.34,-2.4 7.07,-4.42c3.34,-3.9 5.06,-2.94 7.21,0.99c13.83,25.25 28.11,50.25 41.58,75.69c11.55,21.82 22.26,44.09 33.25,66.21c2.26,4.55 3.95,9.37 6.15,13.95c1.49,3.12 0,4.62 -2.47,5.89c-3.06,1.57 -3.21,-1.51 -4,-2.8c-7.53,-12.34 -14.91,-24.79 -22.54,-37.5z" fill="#F4F7F6" id="svg_30" opacity="1"/>
  <path d="m433.8,203.72c22,-47.55 47.4,-92.83 74.23,-137.52c4.41,2.68 7.58,6.53 12.31,8.22c2.6,0.93 0.4,2.73 -0.27,3.88c-6.03,10.36 -11.87,20.86 -18.32,30.97c-16.99,26.62 -32.94,53.87 -49.44,80.79c-8.41,13.72 -16.76,27.48 -25.08,41.25c-0.65,1.08 -1.13,2.27 -2.51,1.32c-1.5,-1.03 -2.71,-2.4 -2.14,-4.51c0.54,-2.05 0.94,-4.11 1.95,-6.05c3.12,-5.96 6.06,-12 9.27,-18.35z" fill="#F5F7F7" id="svg_31" opacity="1"/>
  <path d="m649.28,484.68c-8.14,-2.04 -15.24,-6.1 -22.6,-9.54c-22.13,-10.32 -44.63,-19.77 -67.01,-29.5c-21.5,-9.34 -42.97,-18.75 -64.46,-28.13c-0.75,-0.32 -1.54,-0.53 -2.4,-0.82c-0.26,-0.9 0.88,-1.25 0.95,-1.9c0.73,-6.7 4.68,-4.7 8.67,-3.43c36.88,11.72 73.17,25.11 109.26,39.06c11.29,4.36 22.63,8.61 34.14,13.22c0.85,0.99 1.41,1.87 2.88,1.45c1.24,-0.18 2.01,0.18 2.98,0.98c0.35,6.32 0.79,12.55 -2.41,18.61z" fill="#E6EBEA" id="svg_32" opacity="1"/>
  <path d="m91.21,439.7c-6.96,2.57 -13.7,4.87 -20.83,7.13c-2.87,-6.51 -8.13,-9.96 -14.17,-12.48c-1.44,-0.61 -3.45,-0.26 -3.41,-2.87c7.92,-3.22 16.15,-4.05 24.06,-6.21c21.85,-5.96 43.84,-11.34 66.02,-15.92c26.2,-5.41 52.38,-10.89 78.58,-16.3c1.7,-0.36 4.29,-1.92 4.26,1.61c-0.01,2.36 2,5.39 -2.58,6.68c-15.13,4.24 -30.03,9.32 -45.21,13.39c-24.67,6.61 -49.21,13.65 -73.55,21.39c-1.86,0.59 -3.74,1.16 -5.99,1.69c-0.96,-0.36 -1.53,-0.7 -2.03,-1.14c-1.24,-1.07 -2.47,-2.62 -4.29,-1.73c-2.15,1.05 0.06,3.05 -0.86,4.76z" fill="#F1F4F2" id="svg_33" opacity="1"/>
  <path d="m556.62,403.99c13.86,2.78 27.39,5.29 40.78,8.43c16.74,3.92 33.4,8.19 49.99,12.65c6.49,1.75 12.94,3.62 19.92,5.02c0.22,1.99 1.34,3.95 0.19,5.8c-2.79,4.48 -2.6,8.88 0.13,13.58c-12.51,-3.38 -24.87,-6.97 -37.14,-10.89c-29.49,-9.41 -59.26,-17.83 -89.21,-25.63c-1.89,-0.5 -3.72,-1.21 -5.93,-1.97c-3.1,-2.16 -5.36,-5.08 -9.39,-4.61c-1.12,0.13 -2.42,-0.2 -2.52,-1.76c-0.1,-1.64 1.03,-2.65 2.41,-2.59c5.42,0.23 10.69,-1.76 16.26,-0.44c4.62,1.1 9.24,2.66 14.51,2.41z" fill="#EAEEEC" id="svg_34" opacity="1"/>
  <path d="m72.84,388.52c22.9,-2.61 45.58,-5.04 68.28,-7.2c10.72,-1.02 21.49,-1.5 32.23,-2.24c15.03,-1.04 30.06,-2 45.07,-3.27c2.08,-0.18 3.3,-0.42 3.21,1.94c-0.09,2.2 1.85,5.4 -2.08,6.09c-12.14,2.15 -24.28,4.26 -36.46,6.11c-13.18,2 -26.4,3.68 -39.61,5.49c-11.1,1.53 -22.24,2.82 -33.3,4.62c-10.17,1.65 -20.25,3.83 -30.77,5.74c-2.36,-3.67 -0.9,-6.6 1.54,-9.3c0.82,-0.91 2.71,-1.3 2.04,-2.92c-0.56,-1.35 -2.23,-1.13 -3.51,-1.35c-2.25,-0.38 -4.58,-0.53 -6.64,-2.39c-0.2,-0.55 -0.21,-0.79 0,-1.32z" fill="#F4F7F6" id="svg_35" opacity="1"/>
  <path d="m598.96,499.72c-8.18,-4.34 -16.22,-8.62 -23.92,-13.43c-23.5,-14.69 -47.01,-29.36 -71.37,-42.6c-1.15,-0.63 -2.25,-1.34 -3.54,-2.32c0.19,-3.32 -1,-6.1 -1.27,-9.23c21.56,6.15 40.65,17.42 60.25,27.55c15.55,8.04 30.93,16.38 46.36,24.64c1.51,0.8 2.86,1.93 4.43,3.23c0.16,3.07 -1.86,2.39 -3.32,2.2c-1.81,-0.22 -3.5,-1.08 -4.83,-2.32c-1.87,-1.75 -3.75,-2.14 -5.58,-0.21c-1.96,2.06 -1.88,4.39 -0.36,6.76c1.18,1.83 4.02,2.64 3.15,5.73z" fill="#E6EBEA" id="svg_36" opacity="1"/>
  <path d="m564.2,515.18c-7.51,-5.57 -14.69,-11.01 -21.9,-16.43c-17.5,-13.17 -35.4,-25.8 -52.05,-40.07c-1.98,-1.69 -4.01,-3.31 -6.16,-5.27c-0.74,-3.08 1.37,-4.84 2.63,-7.25c17.71,8.89 33.62,20.37 49.85,31.34c14.95,10.12 29.78,20.43 44.64,30.68c1.9,1.31 3.7,2.75 5.69,4.43c-1.87,3.78 -3.61,4.15 -6.57,1.55c-1.87,-1.64 -3.32,-3.75 -5.53,-5.02c-0.73,-0.42 -1.58,-0.8 -2.15,0.19c-0.38,0.65 -0.03,1.27 0.49,1.75c4.19,3.87 2.86,9.4 3.97,14.32c-3.81,-2.44 -7.34,-5.1 -11.01,-8.08c0.07,-0.87 0.77,-1.52 0.51,-1.92c-0.5,-0.8 -1.38,0.01 -2.41,-0.22z" fill="#E2E7E6" id="svg_37" opacity="1"/>
  <path d="m416.65,505.94c5.22,10.51 10.2,20.97 14.89,31.56c8.01,18.08 15.84,36.24 23.73,54.38c0.97,2.24 1.85,4.53 2.91,7.12c-1.6,5.38 -1.8,10.08 0.1,15.52c1.31,3.74 -1.08,8.5 -4.93,11.58c-5,-10.14 -7.89,-20.83 -11.82,-31.12c-6.82,-17.83 -13.75,-35.61 -19.7,-53.75c-3.54,-10.82 -6.44,-21.86 -9.65,-33.26c1.4,-0.89 2.58,-1.9 4.47,-2.03z" fill="#D4D9DA" id="svg_38" opacity="1"/>
  <path d="m475.25,391.85c-0.2,0.29 -0.25,0.73 -0.32,0.94c-0.44,0.65 -0.78,1.1 -0.82,1.98c0.21,5.17 -1.67,9.43 -4.14,13.89c-0.96,0.99 -1.55,0.66 -2.3,0.09c-0.31,-0.24 0.58,-2.98 -1.37,-0.73c-1.41,1.64 -3.41,0.45 -5.85,-0.59c1.14,1.92 4.36,2.58 2.16,4.82c-1.19,1.21 -6.41,0.07 -7.91,-1.38c-1.23,-1.19 -0.37,-4.45 -2.91,-3.86c-1.98,0.46 -3.22,2.76 -4.37,4.58c-1.76,2.77 -3.38,5.59 -7.61,3.34c-0.47,-2.08 0.17,-3.61 1.02,-5.04c11.02,-18.48 16.08,-38.35 14.13,-59.88c-0.04,-0.5 0.13,-0.99 0.44,-1.85c4.49,-4.89 9.89,-3.78 15.1,-3.1c2.27,0.3 2.92,2.49 3.56,4.4c0.9,2.66 1.6,5.42 3.98,7.8c0.7,1.03 0.85,1.82 0.72,3.03c-3.13,4.97 -3.44,9.81 -1.5,14.91c1.16,3.05 1.3,6.1 -0.58,8.98c-0.63,0.98 -1.35,1.91 -0.65,3.52c0.06,1.09 0.02,1.84 -0.1,2.95c-0.21,0.55 -0.35,0.74 -0.68,1.2z" fill="#EFF3F0" id="svg_39" opacity="1"/>
  <path d="m541.05,534.79c-17.19,-15.01 -33.76,-30.44 -49.86,-46.36c-8.57,-8.48 -16.62,-17.49 -25.23,-25.93c-2.9,-2.85 -0.61,-4.27 0.61,-6.11c2,-3 2.79,0.43 4.29,1.26c0.58,0.65 1.02,0.95 1.81,1.45c0.53,0.29 0.71,0.37 1.07,0.69c13.06,9.76 25.48,19.81 37.3,30.66c7.52,6.89 15.74,13.02 23.59,19.55c4.35,3.62 8.58,7.38 13.05,11.39c0.93,3.26 3.23,5.64 3.17,8.91c-0.06,3.05 -1.12,4.91 -4.47,3.88c-1.84,-0.57 -3.46,-0.99 -5.33,0.61z" fill="#E2E7E6" id="svg_40" opacity="1"/>
  <path d="m387.47,629.23c-1.96,-15.95 -3.78,-31.65 -5.27,-47.38c-0.99,-10.38 -1.44,-20.81 -2.24,-31.21c-0.79,-10.23 -2.11,-20.42 -1.95,-31.17c-0.49,-1.65 0.39,-2.03 1.15,-1.87c1.92,0.41 2.96,-0.91 4.56,-1.72c2.96,13.22 5.77,26.3 8.19,39.45c2.07,11.28 3.69,22.64 5.5,33.97c1.17,7.29 2.3,14.58 3.4,22.28c-1.69,2.28 -3.7,3.72 -5.57,5.31c-2.92,2.48 -4.74,5.38 -4.6,9.34c0.06,1.94 -0.1,3.8 -3.17,3z" fill="#D6DBDC" id="svg_41" opacity="1"/>
  <path d="m450.63,490.8c10.19,11.79 18.9,24.23 27.99,36.4c10.01,13.42 20.1,26.77 30.28,40.48c-3.58,3.98 -8.38,5.23 -13.56,6.44c-8.53,-10.29 -14.86,-21.76 -22.1,-32.62c-9.51,-14.27 -19.38,-28.35 -27.25,-44.04c0.71,-3 1.26,-5.78 4.64,-6.66z" fill="#DFE3E0" id="svg_42" opacity="1"/>
  <path d="m159.21,447.79c-3.38,1.66 -6.36,3.56 -10.17,4.42c-4.39,0.08 -6,-5.2 -9.21,-5.02c-3.1,0.18 -6.12,2.92 -9.68,2.77c-2.15,-0.08 -4.33,-0.45 -4.35,-3.62c11.83,-4.63 23.57,-8.66 35.03,-13.37c21.57,-8.87 44.54,-13.79 65.71,-23.7c2.06,-0.96 3.5,-0.55 4.28,1.56c0.75,2.05 2.61,4.41 -0.49,6.01c-5.08,2.64 -10.2,5.25 -15.45,7.52c-17.57,7.57 -35.2,15 -53.15,22.24c-1.44,-1.19 -2.01,-2.56 -2.95,-3.65c0.49,1.14 1.33,2.02 2.27,3.25c-0.05,0.69 -0.3,1.11 -0.82,1.52c-0.45,-0.04 -0.63,-0.08 -1.02,0.07z" fill="#F1F4F2" id="svg_43" opacity="1"/>
  <path d="m128.54,480.05c20.11,-12.48 41.83,-21.95 62.63,-33.18c14.25,-7.7 29.75,-12.88 43.36,-21.82c1.1,-0.72 1.92,-1.2 2.56,0.59c0.9,2.49 3.66,4.98 0.21,7.39c-4.44,3.1 -8.98,6.08 -13.63,8.85c-14.76,8.78 -29.6,17.44 -44.72,26.25c-2.23,0.49 -3.33,-0.75 -4.5,-1.93c-1.47,-1.48 -3.05,-1.51 -4.95,-0.34c2.24,1.81 4.98,1.33 7.3,2.9c-5.83,4.02 -11.9,7.78 -18.31,11.68c-1.42,-0.58 -1.54,-1.76 -1.84,-2.88c-1.4,-5.23 -5.36,-6.75 -9.65,-3.29c-4.17,3.36 -9.42,4.04 -13.96,6.4c-1.34,0.7 -2.91,0.6 -4.5,-0.62z" fill="#EEF2F0" id="svg_44" opacity="1"/>
  <path d="m347.5,516.73c0.45,12.56 -1.28,24.69 -2.36,36.87c-0.77,8.73 -1.42,17.47 -2.15,26.2c-0.29,3.46 -0.65,6.9 -1.06,10.77c-0.81,1.17 -1.26,1.97 -0.32,3.2c-0.24,4.44 -0.66,8.64 -1.33,13.04c-3.68,-0.27 -1.65,-3.64 -3.33,-5.51c-1.96,6.53 -7.42,9.51 -12.5,12.9c1.73,-12.06 3.72,-23.92 5.76,-35.77c3.34,-19.33 6.63,-38.67 10.97,-57.82c0.21,-0.95 0.59,-1.87 0.99,-3.19c1.59,-1.82 3.24,-1.83 5.33,-0.69z" fill="#DBDFDE" id="svg_45" opacity="1"/>
  <path d="m478.66,575.07c2.45,2.41 3.96,5.26 5.33,8.56c-5.18,0.71 -10.02,3.38 -15.7,2.62c-9.45,-16.48 -17.23,-33.39 -25.34,-50.15c-4.07,-8.4 -8.26,-16.73 -11.93,-25.71c0.57,-3.31 4,-3.35 5.66,-5.49c13.07,19.71 24.39,40.17 36.32,60.66c0.55,3.23 -1.29,5.34 -2.42,7.66c-0.78,1.6 -2.42,3.26 -0.26,4.76c1.76,1.22 3.81,1.05 5.49,-0.49c0.84,-0.78 1.42,-1.84 2.85,-2.42z" fill="#E2E7E6" id="svg_46" opacity="1"/>
  <path d="m131.93,561.32c10.92,-11.7 23.07,-21.61 34.76,-32.04c3.91,-3.5 7.95,-6.86 12.22,-10.41c2.68,0.09 5.17,-3.73 7.31,-0.45c1.71,2.62 -0.22,5.2 -1.96,7.07c-2.71,2.94 0.25,6.06 -1,9.29c-12.97,13.36 -25.57,26.54 -39.09,38.79c-0.2,0.18 -0.18,0.62 -0.57,1.15c-2.62,-1.4 -2.84,-3.98 -2.88,-6.34c-0.06,-4.32 -1.69,-6.42 -6.21,-5.69c-0.97,0.15 -1.96,-0.08 -2.58,-1.37z" fill="#DBDFDE" id="svg_47" opacity="1"/>
  <path d="m513.04,548.72c-7.79,-8.67 -15.14,-17.56 -22.76,-26.2c-9.79,-11.12 -19.22,-22.5 -27.91,-34.94c1.95,-2.33 6.19,-0.28 7.6,-4.37c14.66,14.54 29.2,29.03 43.22,44.01c3.41,3.65 7.14,7.03 10.52,11.19c-0.13,1.6 -1.09,2.71 -0.98,4.08c0.28,3.57 -1.15,4.98 -4.7,3.91c-2.21,-0.67 -3.26,1.14 -4.99,2.32z" fill="#E2E7E6" id="svg_48" opacity="1"/>
  <path d="m317.58,577.68c-0.17,1.09 -0.41,1.89 -0.76,3c-1.67,2.14 -2,4.32 -1.89,6.95c-0.6,3.04 -1.17,5.74 -1.94,8.68c-1.16,2.67 -2.37,2.05 -2.86,0.16c-1.08,-4.2 -3.25,-3.62 -6.09,-1.88c-1.52,0.93 -3.24,1.58 -5.37,0.64c7.66,-25.04 15.57,-49.83 23.5,-74.62c1.7,-5.31 3.38,-10.63 5.24,-15.87c0.37,-1.04 0.46,-2.93 2.45,-2.53c1.84,0.36 2.09,1.74 2.12,3.38c0.12,6.84 -1.88,13.35 -3,19.99c-2.14,12.78 -4.55,25.51 -8.09,37.97c-1.03,3.63 -2.14,7.15 -2.57,11.19c-1.47,0.85 -1.4,1.69 -0.74,2.94z" fill="#DBDFDE" id="svg_49" opacity="1"/>
  <path d="m415.67,610.21c-7.17,-24.54 -10.75,-49.58 -16.47,-74.15c-0.68,-2.9 -1.39,-6.08 -1.21,-9.64c2.39,-1.67 3.05,0.33 3.45,1.79c0.85,3.11 2.92,4.22 6.11,4.57c3.26,9.85 6.27,19.47 9.24,29.1c4.04,13.1 8.05,26.22 12.04,39.72c-3.6,3.01 -7.78,4.81 -10.59,8.43c-0.53,0.68 -1.45,0.71 -2.57,0.18z" fill="#DBDFDE" id="svg_50" opacity="1"/>
  <path d="m212.91,598.64c-8.22,13.85 -18.24,26.21 -26,40.51c-4.71,-4.46 -8.94,-8.8 -14.61,-11.71c10.29,-15.07 20.93,-29.79 32.3,-44.34c5.08,-1.04 8.7,2.05 7.64,6.52c-0.73,3.06 -0.89,5.85 0.67,9.02z" fill="#D2D7D8" id="svg_51" opacity="1"/>
  <path d="m355.44,604.23c-0.49,-21.61 0.63,-42.92 2.52,-64.2c0.74,-8.38 1.38,-16.77 2.14,-25.59c1.16,-1.28 2.18,-0.76 2.42,0.23c0.66,2.67 2.18,1.36 3.81,1.18c1.34,24.21 2.4,48.23 3.39,72.69c-3.4,4.29 -8.51,6.79 -8.67,13c-0.08,3.2 -2.35,4.17 -5.61,2.69z" fill="#D9DEDD" id="svg_52" opacity="1"/>
  <path d="m186.23,577.81c-0.18,0.32 -0.23,0.78 -0.3,1c-0.22,0.4 -0.36,0.58 -0.69,1.05c-5.08,8.28 -11.23,15.32 -17.28,22.41c-3,3.52 -5.78,7.11 -8.13,11.07c-1.52,2.56 -3.26,3.89 -5.34,0.38c-1.96,-3.34 -4.89,-5.74 -8.03,-7.91c-2.19,-1.52 -2.91,-2.61 -0.59,-5.27c10.06,-11.54 19.73,-23.41 29.86,-35.3c7.15,-1.58 12.48,4.77 10.5,12.57z" fill="#D2D7D8" id="svg_53" opacity="1"/>
  <path d="m208.83,530.21c18.99,-21.31 39.18,-41.04 58.64,-61.5c5.36,4.04 5.53,4.16 1.51,9.62c-11.45,15.56 -23.94,30.31 -36.19,45.25c-3.19,3.89 -5.95,8.23 -10.42,11.41c-1.37,-0.56 -1.56,-1.74 -1.98,-2.78c-1.27,-3.1 -3.25,-3.81 -6.16,-2.02c-1.73,1.06 -3.52,2.74 -5.4,0.02z" fill="#E6EBEA" id="svg_54" opacity="1"/>
  <path d="m438.33,633.85c5.25,14.09 6.83,29.07 12.4,42.93c0.7,1.73 0.44,2.89 -2.05,3.32c-4.97,0.83 -9.99,1.79 -14.6,3.92c-3.23,1.49 -2.35,-1.73 -2.52,-2.43c-2.99,-12.56 -5.75,-25.17 -8.56,-38.18c0.75,-1.73 1.51,-3.27 2.94,-3.71c3.91,-1.21 5.85,-2.98 4.54,-7.6c-0.74,-2.64 1.58,-3.27 3.92,-2.35c1.88,0.73 2.35,2.72 3.93,4.1z" fill="#C8CDCE" id="svg_55" opacity="1"/>
  <path d="m268.03,431.71c-7.44,-8.52 -11.82,-18.68 -15.97,-29.35c0.41,-2.97 -0.45,-5.19 -1.7,-7.45c-2.17,-3.93 -1.38,-5.48 2.97,-5.79c1.88,-0.13 3.12,-0.69 4.1,-2.24c1.16,-1.85 2.78,-3.32 4.52,-4.59c1.97,-1.42 3.55,-1.04 3.84,1.58c0.57,4.98 3.7,7.9 8.09,10.34c0.71,0.48 1.19,0.76 1.38,1.19c3.75,8.42 8.76,16.12 13.57,24.34c-1.81,5.62 -4.01,6.44 -8.1,2.94c-2.84,-2.44 -4.44,-3.01 -6.75,0.9c-1.61,2.72 -4.44,4.79 -5.95,8.13z" fill="#F1F4F2" id="svg_56" opacity="1"/>
  <path d="m72.74,388.8c2.85,1.77 5.71,2.21 8.67,2.2c2.01,0 3.72,0.77 4.14,2.74c0.36,1.69 -1.18,2.65 -2.6,3.11c-4.22,1.36 -3.05,5.22 -3.94,8.52c-12.15,3.07 -24.31,5.73 -36.45,8.45c-2.03,0.45 -2.36,-0.31 -2.66,-2.22c-0.91,-5.66 -2.07,-11.29 -3.4,-16.87c-0.42,-1.73 -0.42,-2.58 1.51,-2.49c7.81,0.38 15.36,-1.96 23.55,-2.25c1.28,0 2.13,0.05 3.17,-0.55c0.71,-0.25 1.16,-0.34 1.94,-0.35c1.55,1 2.75,1.23 4.19,-0.2c0.7,-0.33 1.16,-0.36 1.88,-0.09z" fill="#EFF3F0" id="svg_57" opacity="1"/>
  <path d="m370.54,644.76c0.66,14.8 0.99,29.38 1.47,43.94c0.09,2.58 -0.55,3.5 -3.25,3.33c-4.14,-0.26 -8.33,-0.41 -12.44,-0.05c-3.77,0.33 -4.54,-1.19 -4.12,-4.48c1.76,-13.81 0.05,-27.77 1.87,-42.04c1.99,-2.11 4.3,-2.19 5.9,-0.59c2.61,2.58 4.66,2.34 7.06,-0.08c0.85,-0.87 2.1,-0.81 3.51,-0.03z" fill="#C8CDCE" id="svg_58" opacity="1"/>
  <path d="m370.9,644.53c-3.84,-0.71 -4.24,4.05 -7.35,4.49c-3.69,0.53 -3.26,-5.35 -7.09,-4.04c-0.45,0.15 -0.99,0.02 -1.9,0.02c-0.86,-13.39 -0.36,-26.76 0.54,-40.56c3.6,0.07 5.43,-1.06 4.94,-4.99c-0.32,-2.53 -0.2,-4.92 3.16,-5.75c1.86,-0.46 2.74,-2.15 2.83,-4.22c0.15,-3.76 1.83,-1.2 3.31,-0.58c0.65,18.44 1.99,36.78 1.56,55.63z" fill="#D0D5D6" id="svg_59" opacity="1"/>
  <path d="m230.58,548.24c16.55,-23.68 34.17,-46.48 52.12,-69.02c4.79,4.89 4.86,4.93 0.56,11.72c-11.16,17.61 -22.39,35.19 -33.9,52.94c-2.36,0.28 -5.06,-1.06 -5.44,2.67c-0.12,1.21 -1.29,2.44 -2.44,1.9c-3.63,-1.71 -7.12,0.94 -10.9,-0.21z" fill="#EAEEEC" id="svg_60" opacity="1"/>
  <path d="m304.01,632.66c-2.44,11.83 -4.89,23.32 -7.35,34.8c-0.89,4.14 -1.8,8.28 -2.69,12.43c-0.56,2.66 -0.64,4.89 -4.89,3.36c-4.98,-1.8 -10.25,-3.26 -15.83,-3.41c2.41,-8.63 4.76,-17.04 7.42,-25.67c4.89,-7.1 11.25,-12.52 15.98,-19.27c1.16,-1.66 2.4,-3.18 4.1,-4.3c2.11,-1.38 3.03,-0.49 3.26,2.06z" fill="#C8CDCE" id="svg_61" opacity="1"/>
  <path d="m154.07,518.7c-0.78,1.27 -1.63,2.18 -2.78,3.19c-0.89,0.11 -1.42,0.26 -1.75,1.09c-7.66,6.51 -15.41,12.63 -22.95,19.01c-2.1,1.77 -5.26,2.03 -6.93,4.88c-3.31,-1.02 -5.6,-2.67 -6.2,-6c-0.38,-2.09 -2.01,-2.79 -3.85,-3.3c-1.64,-0.46 -3.79,-0.33 -3.8,-3.17c13.32,-9.61 26.43,-18.89 39.87,-28.27c2,0.18 2.89,1.4 3.24,2.84c0.87,3.6 3.08,6.42 5.15,9.73z" fill="#E2E7E6" id="svg_62" opacity="1"/>
  <path d="m405.44,645.69c3.76,13.97 4,28.15 7.09,41.99c-5.89,2.09 -12.17,0.85 -18.09,2.37c-2.89,0.74 -2.14,-1.68 -2.25,-3.01c-0.61,-7.08 -1.09,-14.17 -1.68,-21.65c1.37,-3.63 0.82,-7.04 0.23,-10.22c-1.85,-9.93 2.52,-13.15 14.7,-9.48z" fill="#C8CDCE" id="svg_63" opacity="1"/>
  <path d="m82.68,462.45c0.44,-0.2 0.6,-0.29 1.05,-0.38c6.66,0.83 12.63,3.57 19.14,3.9c2.66,0.13 3.47,2.17 3.65,4.92c-0.93,0.93 -1.9,1.46 -3.19,1.95c-1.54,-0.93 -2.37,-0.52 -3.16,0.99c-11.33,6.83 -23.32,11.67 -34.9,17.35c-2,0.98 -2.13,-0.08 -2.66,-1.32c-2.2,-5.11 -4.24,-10.3 -6.74,-15.26c-1.13,-2.24 -0.35,-2.07 1.43,-2.69c8.02,-2.79 15.94,-5.89 24.28,-8.9c0.52,-0.16 0.67,-0.3 1.1,-0.56z" fill="#E5EAE8" id="svg_64" opacity="1"/>
  <path d="m186.74,479.26c14.95,-11.63 30.82,-21.19 46.39,-31.21c2.89,-1.85 6.11,-3.25 8.43,-5.98c1.15,-1.35 2.74,-3.06 4.3,-0.51c1.17,1.91 3.73,3.89 0.75,6.39c-4.82,4.04 -9.54,8.19 -14.46,12.1c-10.45,8.32 -21.05,16.44 -31.46,24.81c-1.58,1.26 -3.36,1.94 -5.3,3.13c-2.03,-0.36 -3.36,-1.84 -5.63,-1.86c-0.84,-0.19 -1.3,-0.39 -2.03,-0.92c-1.32,-1.92 -2,-3.64 -0.99,-5.95z" fill="#EDF0EE" id="svg_65" opacity="1"/>
  <path d="m106.89,471.18c-2.21,-6.27 -8.44,-2.89 -12.22,-5.13c-3.15,-1.86 -7.33,-1.05 -10.58,-3.62c11.86,-4.98 23.8,-9.61 35.75,-14.23c1.81,-0.7 3.62,-1.41 5.8,-2.13c2.99,3.46 8.35,3.88 11.54,0.35c2.68,-2.97 4.34,-2.52 5.73,0.78c1.02,2.41 4.58,1.91 5.45,4.93c-13.48,6.45 -27.31,12.7 -41.47,19.05z" fill="#EEF2F0" id="svg_66" opacity="1"/>
  <path d="m276.7,544.83c-2.47,6.09 -5.18,11.98 -8.75,17.83c-2.11,1.4 -2.38,-0.07 -2.63,-1.39c-0.64,-3.5 -1.12,-7.02 -6.07,-3.78c-0.93,0.61 -2.31,0.21 -2.55,-1.71c12.91,-21.42 25.78,-42.5 38.95,-63.74c1.81,-0.44 3.3,-0.96 5.11,-0.24c-1.32,8.41 -5.54,15.58 -8.92,23.05c-4.43,9.79 -9.4,19.34 -14.46,29.13c-0.32,0.15 -0.77,0.23 -0.77,0.23c0,0 -0.08,0.45 0.09,0.62z" fill="#E5EAE8" id="svg_67" opacity="1"/>
  <path d="m335.03,652.61c-0.72,11.12 -1.39,21.83 -2.23,32.53c-0.26,3.34 -0.89,5.96 -5.7,4.1c-3.25,-1.27 -7.14,-1.13 -10.75,-1.19c-2.98,-0.04 -3.47,-0.79 -2.91,-3.79c2.09,-11.11 3.77,-22.29 5.7,-33.86c2.56,-2.73 5.81,-3.57 8.74,-5c4.96,-2.42 6.91,-1.15 7.11,4.35c0.03,0.82 0.01,1.64 0.04,2.86z" fill="#C5C9C9" id="svg_68" opacity="1"/>
  <path d="m501.73,614.74c4.64,7.35 8.92,14.49 13.25,21.59c2.11,3.46 4.34,6.85 6.43,10.13c-4.1,2.94 -8.27,5.83 -12.33,8.85c-2.17,1.62 -3.59,2.11 -5,-1.01c-5.01,-11.06 -11.01,-21.62 -16.94,-32.6c2.94,-2.33 5.83,-4.34 8.64,-6.5c1.51,-1.15 3.6,-1.54 5.95,-0.46z" fill="#CAD0D1" id="svg_69" opacity="1"/>
  <path d="m600.81,522.77c0.68,0.18 0.95,0.33 1.18,0.86c2.52,3.21 5.1,6.03 9.71,6.24c6.58,3.66 12.07,8.44 18.67,11.44c1.76,0.8 2.13,1.9 0.45,3.34c-3.8,3.28 -6.27,7.58 -8.62,11.9c-1.1,2 -1.63,2.1 -3.53,0.74c-8.26,-5.9 -16.76,-11.49 -24.63,-18.45c-0.57,-1.64 -1.35,-2.91 -2.04,-4.21c-2.9,-5.46 -2.19,-7.7 3.39,-10.47c1.6,-0.8 3.14,-1.86 5.42,-1.39z" fill="#D4D9DA" id="svg_70" opacity="1"/>
  <path d="m281.78,597.7c-3.4,12.67 -8.66,24.41 -13.47,36.32c-1.38,3.43 -2.8,6.85 -4.36,10.62c-2.63,1.48 -2.34,-0.51 -2.68,-1.85c-1.34,-5.19 -4.4,-6.5 -9.03,-3.83c-1.67,0.97 -3.12,2.54 -5.68,1.43c2.14,-7.02 5.67,-13.46 9.12,-20.25c1.85,-1.21 2.96,-2.49 2.65,-4.82c0.15,-1.11 0.43,-1.92 0.85,-3.03c3.07,-3.79 6.23,-7.05 8.8,-10.88c3.98,-5.93 8.35,-7.02 13.8,-3.71z" fill="#D0D5D6" id="svg_71" opacity="1"/>
  <path d="m473.32,631.72c5.04,10.39 9.35,20.87 14.85,30.78c0.99,1.77 0.3,2.19 -1.09,2.83c-4.61,2.12 -9.21,4.29 -13.75,6.54c-2.44,1.21 -2.68,-0.71 -3.26,-2.1c-3.36,-8 -6.69,-16 -10.05,-24.39c0.53,-1.67 0.32,-2.93 -0.18,-4.19c-0.4,-0.98 -0.53,-2.24 0.56,-2.56c3.83,-1.15 6.15,-4.17 8.9,-6.68c1.02,-0.93 2.37,-1.09 4.02,-0.23z" fill="#C8CDCE" id="svg_72" opacity="1"/>
  <path d="m201.31,501.12c1.16,-2.4 3.19,-3.55 5.36,-5.01c0.91,-0.66 1.76,-0.83 2.34,-1.79c14.19,-13.03 28.86,-25.1 43.52,-37.19c1.09,-0.89 2.48,-2.71 4.09,-0.85c1.46,1.68 3.62,3.8 1.27,6.01c-9.24,8.71 -16.54,19.39 -27.49,26.78c-2.21,-1.94 -4.05,-3.73 -7.02,-1.68c-3.56,2.47 -4.43,5.58 -2.56,10.58c-2.53,5.49 -7.51,8.54 -11.48,12.92c-2.7,1.57 -3.9,0.18 -4.71,-1.83c-1.02,-2.53 -2.01,-5.08 -3.32,-7.94z" fill="#EFF3F0" id="svg_73" opacity="1"/>
  <path d="m256.24,584.85c-1.16,5.76 -4.67,9.98 -7.22,14.68c-3.81,7.03 -7.63,14.05 -11.74,21.27c-0.76,1.19 -3.38,0.38 -2.28,2.93c-0.44,1.5 -0.95,2.7 -1.73,4.09c-2.34,1.49 -2.89,-0.28 -3.56,-1.53c-0.79,-1.46 -1.27,-3.08 -2.1,-4.53c-0.57,-0.98 -0.94,-2.38 -2.33,-2.31c-1.36,0.07 -1.73,1.42 -2.19,2.48c-1.35,3.12 -3.93,5.34 -5.86,8.04c-0.93,1.3 -2.12,2.15 -4.1,1.23c4.95,-11.11 11.85,-21 17.75,-31.47c1.04,-1.85 2.23,-3.62 3.66,-5.58c0.69,-0.45 1.06,-0.93 1.51,-0.98c5.92,-0.73 9.3,-4.32 12.08,-9.41c2.29,-4.18 5.95,-4.33 9.02,-1.01c-0.1,0.38 -0.14,0.84 -0.22,1.06c-0.22,0.4 -0.35,0.58 -0.69,1.04z" fill="#D4D9DA" id="svg_74" opacity="1"/>
  <path d="m267.84,432.16c0.29,-3.58 0.72,-6.85 4.55,-8.18c0.52,-0.18 0.93,-0.93 1.23,-1.5c2.85,-5.38 3.4,-5.66 7.8,-0.9c3.06,3.33 4.74,2.82 6.52,-1.18c1.95,-1 2.71,0.56 3.63,1.62c9.78,11.34 21.53,20.08 35.05,26.47c1.45,0.68 3.31,1.14 2.4,3.75c-4.28,1.44 -7.62,0.26 -10.73,-2.96c-0.83,-1.17 -1.7,-1.28 -2.95,-1.28c-5.6,-2.91 -11.59,-4.12 -17.2,-5.68c-6.15,-1.7 -13.21,-2.11 -19.82,1.54c-4.4,-3.05 -7.42,-7.19 -10.48,-11.7z" fill="#E6EBEA" id="svg_75" opacity="1"/>
  <path d="m502.02,614.61c-3.43,0.69 -6.82,1.22 -8.69,4.75c-1.2,2.27 -3.45,1.43 -5.75,1.89c-6.81,-11.46 -13.17,-22.99 -19.58,-34.88c1.82,-0.24 3.57,-0.57 5.24,-1.46c3.19,-1.68 6.5,-2.35 10.4,-0.93c7.07,9.68 12.87,19.88 18.38,30.63z" fill="#D4D9DA" id="svg_76" opacity="1"/>
  <path d="m512.85,549.12c1.18,-3.3 2.07,-6.89 6.67,-3.59c1.45,1.04 2.37,0.05 1.87,-1.85c-0.49,-1.9 -1.08,-3.94 2.07,-4.87c8.89,7.69 16.7,16.09 23.57,25.7c1.38,2.2 0.74,3.97 -0.62,5.28c-3.09,2.98 -4.77,6.67 -6.38,10.85c-9.25,-10.27 -18.15,-20.75 -27.18,-31.52z" fill="#D9DEDD" id="svg_77" opacity="1"/>
  <path d="m246.04,640.53c1.8,-0.46 3.27,-0.79 4.57,-2.09c2.21,-2.21 5.05,-3.49 8.02,-1.92c2.9,1.54 5.51,3.68 3.85,7.73c-0.04,0.09 0.44,0.4 1,0.67c-2.61,8.55 -5.6,17.01 -8.43,25.52c-0.51,1.56 -1.26,1.97 -2.47,1.2c-4.62,-2.91 -9.83,-4.31 -14.99,-5.81c-2.65,-0.77 -2.56,-2.01 -1.49,-4.19c3.37,-6.9 6.53,-13.91 9.94,-21.11z" fill="#CAD0D1" id="svg_78" opacity="1"/>
  <path d="m282.3,597.79c-8.78,-1.54 -10.45,-0.47 -15.48,7.84c-1.54,2.55 -4.5,4.24 -7.15,6.34c5.01,-11.84 10.37,-23.7 16.03,-35.77c2.87,-3.07 5.59,-4.12 8.87,-0.78c-2.17,-1.77 -5.23,-2.45 -5.36,-6.13c0.21,-1.34 0.59,-2.4 1.21,-3.69c1.65,-0.15 2.49,-1.04 2.78,-2.16c1.93,-7.55 9.29,-7.08 14.68,-9.64c-1.49,10.27 -5.99,19.37 -9.36,28.84c-1.8,5.04 -3.94,9.96 -6.22,15.15z" fill="#DBDFDE" id="svg_79" opacity="1"/>
  <path d="m439.04,415.15c6.53,1.41 6.57,-5.1 9.74,-7.54c1.35,-1.03 2.46,-3.22 4.1,-3.03c2.11,0.25 1.59,2.83 2.26,4.41c1.43,3.38 4.61,2.11 7.51,2.67c-0.79,-2.35 -2.94,-1.26 -3.84,-2.53c-0.64,-0.9 -0.91,-1.77 -0.36,-2.73c0.56,-0.98 1.66,-1.61 2.44,-0.75c3.95,4.35 5.65,1.34 7.36,-2.05c0.08,-0.16 0.6,-0.1 0.97,-0.15c1.51,1.81 -3.21,3.62 0.27,5.48c-2.69,9.28 -8.07,17.15 -14.13,24.95c-3.7,-0.39 -5.75,-3.32 -8.82,-4.57c-3.09,-1.27 -5.62,-2.97 -9.13,-0.77c-2.22,1.39 -4.43,-0.22 -6.29,-2.32c0.53,-5.26 4.11,-8.1 7.92,-11.07z" fill="#E6EBEA" id="svg_80" opacity="1"/>
  <path d="m298.47,553.9c-1.68,0.07 -2.92,0.17 -3.73,1.57c-0.76,1.31 -1.89,2.54 -3.36,2.74c-3.94,0.56 -7.13,1.48 -7.02,6.52c0.02,0.93 -1.44,2.84 -3.51,0.95c7.4,-17.03 14.97,-33.75 22.56,-50.46c1.62,-3.57 3.27,-7.13 5.22,-10.94c1.79,1.21 4.02,-0.4 5.96,1.37c-4.4,16.46 -8.38,32.86 -16.12,48.25z" fill="#E2E7E6" id="svg_81" opacity="1"/>
  <path d="m122.75,483.17c1.02,-0.84 1.83,-1.42 2.95,-2.06c6.08,0.74 8.65,4.36 7.42,10.08c-0.31,1.45 -0.52,2.9 -0.61,4.72c-11.75,6.91 -22.7,14.83 -35.09,21.01c-1.92,0.44 -1.98,-0.63 -1.66,-1.59c0.49,-1.52 1.93,-2.16 3.18,-2.97c1.82,-1.18 5.43,-1.49 4.53,-4.28c-0.88,-2.75 -2.78,-5.65 -6.15,-6.6c-1.55,-0.43 -3.38,-0.12 -4.37,-2.11c5.16,-3.24 10.26,-6.14 15.71,-9.08c1.03,0.25 1.52,-0.02 2.13,-0.8c0.95,-0.65 1.7,-1.07 2.78,-1.51c3.7,-0.58 6.88,-1.52 9.18,-4.81z" fill="#E5EAE8" id="svg_82" opacity="1"/>
  <path d="m212.57,631.1c5.2,-1.81 7.27,-6.12 9.34,-10.23c0.87,-1.72 1.45,-3.49 3.51,-3.67c2.23,-0.2 2.05,2.19 3.05,3.34c1.89,2.18 1.34,5.53 4.17,7.39c-0.1,1.01 -0.56,1.95 -1.3,3.03c-0.44,0.26 -0.59,0.38 -0.66,0.76c-3.4,7.32 -6.94,14.35 -10.34,21.43c-1.32,2.75 -2.17,4.43 -5.44,1.49c-2.72,-2.45 -6.32,-4.16 -9.8,-5.46c-2.43,-0.91 -2.18,-1.57 -1.3,-3.47c2.34,-5.12 5.28,-9.86 8.77,-14.61z" fill="#D0D5D6" id="svg_83" opacity="1"/>
  <path d="m438.56,633.5c-2.23,0.86 -2.77,-1.37 -4.08,-2.47c-0.8,-0.67 -1.71,-1.27 -2.67,-0.63c-1.03,0.68 -0.73,1.72 -0.16,2.62c2.75,4.34 0.98,6.5 -3.57,6.95c-2.13,0.21 -2.38,2.76 -4.71,2.98c-2.87,-10.71 -5.37,-21.46 -7.93,-32.6c3.72,-1.08 4.72,-5.37 8.19,-6.68c1.45,-0.55 2.63,-1.85 4.78,-1.68c3.59,10.37 6.8,20.75 10.15,31.51z" fill="#D0D5D6" id="svg_84" opacity="1"/>
  <path d="m533.67,602.06c6.19,7.61 11.99,15.37 17.92,23.01c1.32,1.69 1.63,2.37 -0.65,3.52c-4.1,2.07 -7.82,4.83 -11.17,8.01c-1.87,1.79 -2.89,1.8 -4.44,-0.65c-4.56,-7.2 -9.48,-14.18 -14.31,-21.59c3.76,-1.7 7.01,-4.72 9.26,-9.01c0.71,-1.36 1.7,-2.44 3.39,-3.29z" fill="#C8CDCE" id="svg_85" opacity="1"/>
  <path d="m304.34,632.79c-1.28,-1.5 -2.37,-2.48 -4.01,-0.42c-3.57,4.47 -7.05,9.02 -10.75,13.39c-2.8,3.3 -6.7,5.74 -7.96,10.27c-0.02,0.07 -0.51,-0.89 -0.62,-1.76c1.66,-5.71 3.33,-11.11 5.09,-16.89c3.78,-6.8 5.24,-13.96 6.91,-21.05c1.23,-5.22 3.54,-9.65 8.58,-12.09c1.81,-0.88 3.46,-1.98 5.16,-3.03c1,-0.62 2.12,-1.12 3.24,-0.25c1.07,0.84 1.1,2.05 0.77,3.2c-1.23,4.29 -2.22,8.63 -2.71,13.47c-0.1,5.48 -2.82,9.95 -3.7,15.16z" fill="#D0D5D6" id="svg_86" opacity="1"/>
  <path d="m92.65,499.06c4.56,0.94 8.47,1.75 11.14,6.15c2.3,3.78 2.7,4.97 -1.43,7.1c-2.16,1.11 -5.28,1 -5.52,4.54c-4.01,3.84 -9.38,5.62 -13.99,8.68c-1.7,1.13 -2.43,0.3 -3.25,-1.38c-2.42,-4.95 -5.21,-9.71 -8.88,-14.39c7.81,-2.78 14.45,-7.19 21.93,-10.7z" fill="#DFE3E0" id="svg_87" opacity="1"/>
  <path d="m540.86,535.17c0.3,-4.11 2.16,-4.68 5.16,-2.54c0.93,0.66 1.83,1.63 3.03,0.59c1.01,-0.87 0.44,-2.08 0.58,-3.15c0.42,-3.17 -3.35,-4.91 -2.11,-8.23c11.39,7.89 21.06,17.53 31.45,26.8c0.06,1.81 -0.74,3.14 -2.14,3.02c-4.87,-0.41 -9.3,1.27 -13.87,2.37c-0.78,0.18 -1.59,-0.28 -2.71,-0.79c-7.5,-5.16 -12.81,-12.08 -19.39,-18.07z" fill="#DBDFDE" id="svg_88" opacity="1"/>
  <path d="m571.35,590.68c3.46,3.29 6.46,6.55 9.54,9.74c1.2,1.24 1.09,1.61 -0.39,2.85c-4.25,3.57 -9.12,6.54 -12.08,11.51c-0.82,1.37 -1.34,1.57 -2.67,-0.21c-5.99,-7.99 -12.37,-15.69 -18.62,-23.87c7.99,-5.23 15.93,-6.04 24.22,-0.02z" fill="#C8CDCE" id="svg_89" opacity="1"/>
  <path d="m257.37,582.99c-2.69,-3.4 -5.11,-1.1 -7.34,0.24c-0.9,0.55 -1.69,1.75 -1.97,2.79c-1.69,6.51 -6.65,7.8 -12.79,7.99c1.97,-6.4 6.44,-11.6 9.68,-17.51c3.76,-6.85 7.51,-13.71 11.53,-20.81c1.05,1.11 1.97,1.74 3.34,0.41c1.07,-1.03 2.34,-3.79 3.43,-2.29c1.36,1.89 4.1,3.54 3.46,6.59c-0.19,0.92 -0.87,1.85 0.78,2.52c-2.73,6.85 -5.54,13.76 -10.12,20.07z" fill="#DBDFDE" id="svg_90" opacity="1"/>
  <path d="m405.79,645.59c-2.93,0.54 -5.71,-0.16 -8.72,0.12c-4.08,0.39 -4.99,1.59 -5.27,5.53c-0.31,4.49 1.62,9.11 -1.02,13.61c-1.16,-8.9 -1.97,-17.93 -2.71,-27.41c1.83,-2.43 -0.16,-4.07 -0.58,-6.15c-0.26,-0.73 -0.34,-1.17 -0.36,-1.96c1.14,-0.47 2.75,-0.11 2.46,-1.94c-1.37,-8.48 4.71,-11.8 10.81,-15.39c2.41,11 2.85,22.25 5.39,33.59z" fill="#D0D5D6" id="svg_91" opacity="1"/>
  <path d="m274.01,394.76c-6.07,-1.28 -9.54,-5.9 -9.68,-12.83c-1.96,1.7 -4.29,2.84 -5.17,4.68c-1.58,3.32 -3.05,4.65 -7.1,3.71c-2.61,-0.6 -2.31,1.98 -0.99,3.69c1.83,2.37 2.94,4.86 1.3,7.92c-1.6,-3.37 -2.86,-6.8 -4.1,-10.6c1.21,-2.02 1.31,-4.31 0.55,-5.59c-2.99,-5.07 -0.12,-9.84 0.28,-14.69c0.37,-4.45 3.94,-4.33 7.13,-3.94c3.58,0.43 7.11,1.26 11.13,1.94c1.63,0.78 2.24,1.85 2.26,3.55c-0.16,0.91 -0.39,1.52 0.3,2.36c1.14,6.82 3.44,13.05 4.09,19.8z" fill="#F5F7F5" id="svg_92" opacity="1"/>
  <path d="m629.24,517.71c-7.41,-2.49 -13.58,-7.02 -20.18,-11.35c-0.31,-1 -0.75,-1.37 -1.75,-1.4c-1.25,-0.42 -2.19,-0.88 -3.26,-1.64c0.64,-6.8 1.97,-8.06 8.2,-7.98c2.92,0.04 5.53,-0.88 8.42,-2.25c10.11,4.24 18.93,10.48 29.19,14.5c0.74,1.08 1.06,1.93 0.94,3.37c-0.04,0.47 -0.16,0.65 -0.24,0.72c-3.64,0.74 -6.73,-0.29 -9.14,-2.85c-1.76,-1.88 -3.77,-2.47 -6.22,-2.4c-2.56,0.08 -4.02,0.98 -4.04,3.82c-0.02,2.48 -0.34,4.97 -1.92,7.46z" fill="#DFE3E0" id="svg_93" opacity="1"/>
  <path d="m131.65,561.05c3.23,1.56 6.99,-1.95 9.45,1c2.22,2.66 0.05,6.47 1.56,9.52c0.35,0.71 0.33,1.6 0.55,2.88c-4.13,4.68 -8.37,8.84 -12.52,13.1c-1.8,1.85 -3.21,2.17 -4.52,-0.44c-2.09,-4.15 -5.02,-7.68 -8.39,-10.83c-1.79,-1.67 -1.54,-2.51 0.38,-4c4.54,-3.52 8.8,-7.38 13.49,-11.23z" fill="#D2D7D8" id="svg_94" opacity="1"/>
  <path d="m278.05,444.29c-0.28,-3.71 1.8,-4.84 4.66,-4.18c2.99,0.68 5.78,0.4 8.76,0.02c3.57,-0.47 7.21,-0.5 10.44,2.06c2.25,1.78 5.3,1.58 8.07,2.07c1.83,0.33 3.89,1.02 4.96,3.39c-0.65,4.02 -2.32,6.18 -6.6,5.42c-2.62,-0.46 -4.89,0.58 -5.98,3.33c-1.11,2.8 0.92,4.21 2.44,5.95c1.27,1.46 3.73,1.69 4.17,4.38c-7.84,-2.47 -13.93,-8.08 -20.52,-12.89c-1.05,-0.76 -2.07,-1.56 -3.26,-2.64c-2.27,-1.89 -0.85,-6.92 -5.93,-6.05c-0.59,-0.29 -0.87,-0.46 -1.21,-0.86z" fill="#E5EAE8" id="svg_95" opacity="1"/>
  <path d="m595.67,562.89c3.59,2.88 6.69,5.88 10.14,8.37c2.95,2.13 3.28,3.46 0.35,6.06c-3.31,2.93 -6.69,5.93 -8.99,9.87c-1.22,2.1 -2.44,2.04 -4.17,0.2c-4.44,-4.71 -9.11,-9.21 -13.79,-14.11c1.05,-3.84 3.14,-7.11 1.84,-11.19c-0.45,-1.4 0.61,-2.89 2.25,-3.44c1.29,-0.43 2.54,0.13 2.94,1.23c1.84,4.94 5.47,3.81 9.43,3.01z" fill="#CAD0D1" id="svg_96" opacity="1"/>
  <path d="m473.53,631.46c-2.36,0.36 -4.4,1.18 -5.56,3.59c-0.21,0.44 -0.55,0.83 -0.83,1.24c-1.45,2.1 -3.78,2.24 -5.94,3.06c-2.75,1.03 3.12,3.92 -0.86,5.59c-2.67,-6.01 -5,-12.08 -7.35,-18.54c1.31,-5.09 6.81,-8.55 2.73,-14.94c-1.99,-3.1 -2.28,-8.32 2.39,-11.77c5.23,10.23 10.25,20.82 15.42,31.77z" fill="#D0D5D6" id="svg_97" opacity="1"/>
  <path d="m186.36,577.99c-0.51,-2.15 0.04,-4.52 -1.22,-6.69c-2.01,-3.49 -4.59,-6.01 -9.06,-5.9c8.04,-8.93 16.12,-17.57 24.52,-26.32c3.3,0.44 2.69,2.76 2.11,4.44c-1.81,5.18 -1.19,10.41 -0.74,16.08c-5.01,6.4 -8.84,13.45 -15.61,18.39z" fill="#DBDFDE" id="svg_98" opacity="1"/>
  <path d="m154.47,519.01c-5.6,-2.42 -5.42,-8.29 -8.3,-12.67c8.05,-7.11 17.28,-12.41 26.46,-18.34c3.42,6.19 2.01,12.04 -1.31,18.2c-5.58,4.56 -11.04,8.66 -16.85,12.81z" fill="#E6EBEA" id="svg_99" opacity="1"/>
  <path d="m200.9,500.86c4.52,0.57 3.15,4.85 4.84,7.2c0.78,1.08 0.42,2.98 2.91,2.94c-8.06,7.99 -16.5,15.97 -25.28,24.03c-0.34,-1.25 -0.62,-2.46 -1.4,-3.64c-1.54,-2.36 -1.54,-4.59 0.98,-6.47c0.75,-0.57 1.3,-1.49 1.73,-2.35c0.57,-1.14 1.72,-2.33 0.91,-3.66c-0.97,-1.57 -2.34,-0.3 -3.55,-0.12c-0.64,0.09 -1.31,0.06 -2.4,0.02c6.56,-6.16 13.44,-12.37 21.26,-17.95z" fill="#E5EAE8" id="svg_100" opacity="1"/>
  <path d="m495.01,574.42c4.4,-2.35 8.84,-4.35 13.64,-6.38c4.86,5.99 9.36,12.02 14.03,18.36c-5.5,3.17 -6.88,8.97 -9.62,14.24c-6.24,-8.52 -12.13,-17.2 -18.05,-26.22z" fill="#D6DBDC" id="svg_101" opacity="1"/>
  <path d="m571.6,590.42c-0.81,0.38 -2.19,0.91 -2.73,0.45c-6.79,-5.85 -13.85,-1.47 -21.27,-0.62c-3.56,-2.33 -5.59,-5.59 -7.79,-9.11c-0.24,-4.81 1.3,-8.55 4.92,-11.41c1.29,-1.02 2.4,-2.27 2.31,-4.49c3.92,0.79 6.08,4.2 8.3,7.04c4.96,6.34 10.72,11.89 16.26,18.14z" fill="#D0D5D6" id="svg_102" opacity="1"/>
  <path d="m595.87,562.68c-4.39,3.82 -7.63,3.14 -10.11,-1.83c-0.48,-0.96 -1.1,-1.81 -2.27,-1.35c-1.52,0.6 -2,2.37 -1.37,3.34c2.8,4.29 -0.15,6.92 -2.73,9.96c-7.48,-5.42 -12.51,-13.11 -19.37,-19.44c2,-0.42 3.97,-0.6 6.07,-1.58c2.72,-1.27 5.8,-2.7 9.05,-1.21c1.54,0.71 2.52,-0.04 3.66,-1.41c5.85,4.27 11.39,8.74 17.07,13.52z" fill="#D4D9DA" id="svg_103" opacity="1"/>
  <path d="m202.34,559.87c-2.74,-0.21 -2.43,-2.11 -2.31,-3.69c0.36,-4.64 -1.29,-9.54 1.8,-13.9c0.41,-0.57 -0.2,-1.86 -0.63,-3.07c1.32,-3.91 4.56,-6.2 7.44,-9.19c1.57,1.57 2.71,0.73 4.02,-0.17c5.81,-3.99 8.35,-2.76 9.37,4.87c-0.2,3.91 -3.47,5.5 -5.35,7.59c-5.04,5.56 -8.92,11.99 -14.34,17.56z" fill="#E2E7E6" id="svg_104" opacity="1"/>
  <path d="m512.84,601.09c0.71,-2.1 0.93,-4.03 1.27,-5.99c0.75,-4.37 3.21,-7.48 8.33,-8.32c4.55,4.44 8.08,9.37 11.45,14.85c-2.05,3.38 -3.8,6.58 -3.96,10.48c-0.1,2.32 -1.65,3.07 -3.79,2.73c-1.45,-0.23 -2.89,-0.55 -4.75,-0.84c-3.08,-4.2 -5.74,-8.41 -8.55,-12.91z" fill="#D0D5D6" id="svg_105" opacity="1"/>
  <path d="m600.99,522.63c-2.36,1.44 -5.07,2.26 -7.32,3.77c-1.97,1.33 -3.67,3.14 -1.39,6.07c1.09,1.38 3.45,2.98 1.6,5.85c-5.58,-3.88 -11.05,-8.11 -16.78,-12.52c-0.56,-4.01 -4.18,-7.14 -2.41,-11.49c0.45,-1.11 -1.39,-1.77 -2.44,-2.07c-3.58,-1.04 -1.36,-3.26 -0.79,-4.7c0.82,-2.07 2.29,-1.21 3.53,-0.05c1.81,1.68 3.98,3.09 5.43,5.03c1.94,2.62 3.77,2.97 6.41,0.69c4.58,3.18 9.14,6.35 14.16,9.42z" fill="#DFE3E0" id="svg_106" opacity="1"/>
  <path d="m213.31,598.85c-4.48,-1.29 -4.06,-5.24 -2.97,-7.64c2.51,-5.55 -0.81,-6.82 -5.06,-8.23c3.22,-6.32 7.66,-12.05 12.36,-17.94c2.86,-2.05 4.84,-2.18 5.7,1.5c0.45,1.94 1.89,3.06 3.45,4.08c1.83,1.18 2.26,2.76 1.3,5.06c-2.38,6.93 -7.79,11.53 -11.53,17.66c-0.65,-0.2 -0.97,-0.6 -1.16,-1.04c-0.19,0.1 0.03,0.47 0.25,0.49c0.21,0.02 0.21,0.46 0.36,0.62c0.44,2.44 -2.01,3.34 -2.7,5.44z" fill="#DFE3E0" id="svg_107" opacity="1"/>
  <path d="m132.84,496.16c-1.94,-0.77 -1.87,-2.11 -1.54,-3.67c1.36,-6.38 0.09,-8.95 -5.25,-11.13c0.55,-0.7 1.15,-1.08 2.01,-1.56c6.46,0.15 12.12,-2.58 16.65,-5.8c3.41,-2.42 6.11,-3.59 9.69,-2.57c4.17,1.19 3.69,4.91 3.72,8.69c-8.3,5.62 -16.63,10.77 -25.28,16.04z" fill="#EDF0EE" id="svg_108" opacity="1"/>
  <path d="m52.61,431.14c0.58,0.9 1,1.9 1.88,1.71c3.9,-0.81 6.4,2.05 9.09,3.75c2.56,1.61 4.09,4.47 7.36,5.68c2.52,0.93 -0.35,2.54 -0.86,4.18c-5.84,2.54 -11.63,4.68 -17.34,6.99c-1.83,0.74 -2.32,0.69 -2.87,-1.49c-1.43,-5.68 -3.13,-11.31 -5.19,-16.79c-0.9,-2.41 0.37,-2.53 1.79,-2.89c1.9,-0.48 3.83,-0.81 6.14,-1.14z" fill="#EDF0EE" id="svg_109" opacity="1"/>
  <path d="m335.37,652.76c-2.98,-1.71 0.74,-7.14 -3.74,-7.35c-2.72,-0.12 -5.61,2.33 -8.33,3.79c-1.09,0.58 -2.14,0.81 -3.68,0.79c0.56,-7.15 1.5,-14.3 2.52,-21.82c0.43,-0.34 0.83,-0.3 1.02,-0.5c5.52,-6.08 6.68,-6.28 14.42,-2c0.84,9.27 -1.84,17.94 -2.21,27.09z" fill="#D0D5D6" id="svg_110" opacity="1"/>
  <path d="m556.77,403.67c-4.4,3.16 -8.81,0.32 -12.95,-0.82c-6.58,-1.8 -12.69,1.22 -19.04,0.61c-0.17,-0.01 -0.42,0.76 -0.97,1.81c5.14,-0.98 9.17,-0.12 11.14,5.21c-11.43,-3.03 -22.92,-6.38 -34.39,-9.8c-3.17,-0.94 -1.48,-3.54 -1.38,-5.3c0.16,-2.84 2.61,-2.65 4.54,-2.3c5.62,1.04 11.2,2.34 16.81,3.43c11.99,2.32 24,4.57 36.24,7.16z" fill="#EDF0EE" id="svg_111" opacity="1"/>
  <path d="m105.69,534.16c0.8,2.66 3.05,1.54 4.63,1.9c2.62,0.58 5.41,1.15 4.65,4.82c-0.73,3.55 3.93,2.54 4.22,5.61c-4.15,4.54 -9.39,7.26 -14.06,10.77c-1.29,0.97 -2.41,1.49 -3.33,-0.76c-1.87,-4.59 -4.8,-8.56 -8.48,-11.89c-1.98,-1.79 -1.01,-2.51 0.76,-3.52c3.82,-2.17 7.53,-4.55 11.61,-6.93z" fill="#D9DEDD" id="svg_112" opacity="1"/>
  <path d="m228.36,575.87c-0.93,-2.18 -1.24,-4.6 -4.2,-5.47c-1.18,-0.35 -2.23,-1.68 -2.07,-3.09c0.46,-4.17 -2.26,-1.79 -3.95,-2.17c3.09,-6.2 7.75,-11.16 12,-16.86c3.93,-0.15 7.36,-3.79 11.47,-0.84c1.16,0.84 1.24,-1.39 1.41,-2.43c0.24,-1.5 0.46,-3.15 2.05,-3.69c1.97,-0.67 2.05,1.83 3.67,2.55c-0.16,1.09 -0.63,2.03 -1.4,3.1c-1.53,0.39 -2.03,1.28 -2.26,2.73c-2.18,5.29 -5.48,9.56 -9.03,14.08c-1.56,-0.69 -2.13,-1.75 -3.01,-2.45c-1.27,-1 -2.14,-4.12 -3.86,-2.54c-1.76,1.62 -0.39,4.28 1.23,6.07c0.66,0.74 1.74,0.86 3.13,1.73c-0.57,3.79 -3.13,6.21 -5.18,9.28z" fill="#E2E7E6" id="svg_113" opacity="1"/>
  <path d="m649.21,485.25c1.56,-6.16 -0.04,-12.59 2.77,-18.67c1.36,-0.03 2.72,0.32 4.34,0.9c-0.01,0.44 -0.09,0.61 0.02,0.76c0.1,0.15 0.21,0.22 0.49,0c3.84,1 8.84,1.17 10.82,3.71c2.22,2.84 -2.2,6.58 -2.99,10.21c-0.65,2.98 -2.13,5.78 -3.24,8.66c-2.79,-1.29 -5.56,-2.61 -8.37,-3.87c-1.18,-0.53 -2.41,-0.94 -3.84,-1.7z" fill="#DFE3E0" id="svg_114" opacity="1"/>
  <path d="m338,625.61c-1.28,0.26 -2.66,0.49 -3.51,-0.07c-3.86,-2.53 -7.01,-2.29 -9.63,1.75c-0.27,0.41 -1.19,0.41 -2.22,0.55c0.18,-4.36 0.78,-8.68 1.45,-13.43c3.65,-5.33 10.85,-7.12 11.91,-14.24c0.13,-0.89 0.88,-1.95 2.08,-1.58c1.22,0.37 0.82,1.61 0.91,2.53c0.17,1.78 0.3,3.56 0.74,5.61c0.35,6.42 -0.49,12.47 -1.73,18.88z" fill="#D6DBDC" id="svg_115" opacity="1"/>
  <path d="m629.17,518.3c-0.77,-3.9 1.69,-7.3 0.34,-11.02c-0.45,-1.26 1.38,-2.04 2.35,-1.98c3.74,0.21 8.12,-2.45 10.76,2.99c1.13,2.32 4.65,2.11 7.47,3.26c-1.83,4.52 -4.09,8.81 -6.21,13.17c-0.96,1.97 -2.02,1.14 -3.11,0.33c-3.55,-2.6 -7.42,-4.63 -11.6,-6.75z" fill="#D6DBDC" id="svg_116" opacity="1"/>
  <path d="m620.81,492.69c-0.84,4.24 -5.04,4.32 -7.07,3.91c-5.85,-1.17 -8.26,1.11 -9.49,6.38c-2.26,-0.29 -3.82,-1.32 -5.44,-2.81c0.21,-2.74 -2.14,-3.05 -3.36,-4.26c-3.99,-3.97 -2.72,-9.03 2.48,-11.24c1.74,-0.74 2.14,-0.71 3.42,0.69c2.08,2.27 4.65,4.38 8.48,2.81c3.75,1.22 7.27,2.72 10.98,4.52z" fill="#E2E7E6" id="svg_117" opacity="1"/>
  <path d="m308.36,617.78c-2.37,-4.1 0.49,-7.97 0.92,-12.07c0.15,-1.41 1.53,-3.07 -0.05,-4.06c-1.39,-0.87 -2.33,0.9 -3.13,1.81c-2.21,2.48 -5.81,2.09 -8.18,5.11c-5.07,6.46 -4.61,14.52 -7.57,21.52c-1.02,2.39 -1.79,4.77 -3.84,6.83c1.95,-8.01 4.25,-16.09 6.65,-24.56c0.21,-0.58 0.31,-0.76 0.61,-1.19c0.5,-4.48 2.36,-8.32 3.47,-12.74c0.52,-0.41 0.77,-0.61 0.83,-1.19c-0.02,-0.7 0.01,-1.16 0.19,-1.94c2.34,-0.45 4.37,-1.12 6.21,-2.31c4.39,-2.87 5.62,-2.33 6.55,2.93c0.12,0.66 0.19,1.34 1.46,0.78c-0.29,6.99 -2.67,13.8 -4.12,21.08z" fill="#D4D9DA" id="svg_118" opacity="1"/>
  <path d="m478.28,357.72c-4.07,-0.39 -4.69,-3.76 -5.12,-6.48c-0.7,-4.48 -2.92,-5.74 -7.1,-5.29c-3.08,0.33 -6.35,-0.5 -9.35,1.97c-1.52,-0.35 -1.58,-1.36 -1.61,-2.72c0.39,-1.52 1.41,-2.73 -0.35,-4.07c-0.31,-0.73 -0.31,-1.18 0.03,-1.88c1.35,-0.48 2.56,-0.49 3.54,-0.97c4.59,-2.26 9.18,-2.88 14.26,-1.53c1.43,0.38 3.6,2.21 5.35,-0.4c1.32,0.48 0.84,1.81 0.96,3.3c-0.37,0.56 -0.45,0.84 -0.1,1.28c1.68,2.33 0.91,4.86 1.11,7.66c-1.89,3.02 -0.06,6.17 -1.62,9.13z" fill="#F1F4F2" id="svg_119" opacity="1"/>
  <path d="m667.66,450.02c-0.38,-0.66 -0.42,-1.41 -0.73,-1.56c-6.02,-2.79 -3.33,-7.01 -1.67,-10.86c0.93,-2.15 1.78,-4.25 2.26,-6.99c0.35,-0.45 0.52,-0.52 0.68,-0.49c11.93,1.95 11.92,1.95 8.85,13.6c-0.21,0.79 -0.16,1.65 -0.36,2.44c-1.64,6.62 -1.65,6.62 -9.03,3.86z" fill="#E2E7E6" id="svg_120" opacity="1"/>
  <path d="m171.54,506.51c0.47,-5.76 2.08,-11.59 1.45,-18.11c3.92,-4.18 8.97,-6.21 13.63,-9.42c0.69,1.71 1.03,3.48 1.37,5.63c-5.36,4.41 -5.43,5.95 -0.13,9.15c-4.61,5.08 -10.64,8.39 -16.32,12.75z" fill="#EAEEEC" id="svg_121" opacity="1"/>
  <path d="m244.22,345.42c3.46,-0.28 3.89,-2.41 3.79,-5.03c-0.06,-1.68 -0.09,-3.56 1.94,-4.12c1.56,-0.43 3.33,-0.79 4.73,0.54c1.48,1.41 1.08,3 0.16,4.54c-0.66,1.11 -0.7,2.2 0,3.29c1.53,2.42 1.1,5.13 1.16,7.78c0.06,2.64 -0.35,5.22 -3.26,6.05c-2.7,0.78 -3.75,-1.46 -4.72,-3.42c-0.66,-1.32 -1.64,-2.05 -3.51,-2.04c-0.38,-2.39 -0.39,-4.77 -0.29,-7.59z" fill="#F5F7F5" id="svg_122" opacity="1"/>
  <path d="m470.14,482.82c-0.25,5.25 -2.79,6.39 -7.53,4.39c-3.39,-4.24 -6.24,-8.63 -9.38,-12.79c-1.81,-2.39 -0.6,-3.6 1,-5.28c2.33,-2.43 3.18,0.08 4.21,1.13c3.94,4.02 7.72,8.17 11.7,12.55z" fill="#D9DEDD" id="svg_123" opacity="1"/>
  <path d="m407.86,532.62c-3.84,1.85 -6.62,1.49 -7.33,-3.33c-0.16,-1.11 -0.28,-2.67 -2.2,-3.22c-1.4,-0.55 -1.23,-1.53 -1.24,-2.74c1.46,-2.34 -0.17,-4.01 -0.75,-6.07c-0.26,-0.67 -0.32,-1.08 -0.38,-1.8c-0.13,-0.5 -0.26,-0.69 -0.59,-1.16c-0.26,-1.03 -0.31,-1.79 -0.31,-2.92c2.56,-1.7 4.27,0.19 6.49,1.38c2.31,6.66 4.33,13.07 6.31,19.86z" fill="#D2D7D8" id="svg_124" opacity="1"/>
  <path d="m221.2,498.16c-2.29,-0.42 -3.13,-1.74 -3.21,-3.84c-0.2,-4.79 4.45,-9.58 8.94,-9.37c2.4,0.11 3.22,1.14 3.1,3.76c-2.84,3.38 -5.7,6.34 -8.83,9.45z" fill="#F1F4F2" id="svg_125" opacity="1"/>
  <path d="m478.97,574.68c-1.54,3.87 -3.69,6.46 -8.13,5.28c-2.61,-0.7 -4.61,-2.72 -2.97,-4.9c2.04,-2.69 2.68,-6.02 5.02,-8.83c1.17,0.17 1.81,0.96 2.11,2.37c0.45,1.25 0.57,2.36 1.78,3.18c1.24,0.7 1.81,1.55 2.19,2.9z" fill="#D4D9DA" id="svg_126" opacity="1"/>
  <path d="m476.47,387.87c-2.88,-0.27 -2.84,-1.7 -1.46,-3.28c2.8,-3.21 2.67,-6.36 0.48,-9.86c-1.85,-2.96 -0.7,-10.55 2.13,-13.66c2.56,1.67 0.71,4.32 2.02,6.62c0.78,7.12 -0.77,13.6 -3.17,20.18z" fill="#F1F4F2" id="svg_127" opacity="1"/>
  <path d="m384.04,515.58c-1.98,4.53 -1.98,4.53 -5.83,3.19c-1.65,-0.96 -0.81,-2.62 -0.98,-4.42c0.59,-1.13 0.83,-1.92 0.21,-3.06c-0.25,-2.07 -0.49,-3.88 -0.37,-5.67c0.15,-2.36 2.12,-1.47 3.42,-1.58c3.45,-0.31 2.22,2.38 2.53,4.5c0.56,1.19 -0.11,2.14 0.58,3.17c0.27,1.34 0.36,2.4 0.44,3.87z" fill="#C5C9C9" id="svg_128" opacity="1"/>
  <path d="m436.93,504.65c-0.85,2.93 -2.32,4.9 -5.69,5.1c-1.94,-3 -3.43,-6.34 -4.27,-10.34c0.64,-2.04 1.69,-3.29 3.82,-3.61c3.82,1.85 3.72,6 6.14,8.85z" fill="#D0D5D6" id="svg_129" opacity="1"/>
  <path d="m450.85,490.69c-3.16,0.73 -0.68,5.86 -4.68,6.13c-2.93,-2.38 -4.31,-5.87 -6.15,-9.46c0.86,-1.86 2.3,-2.83 3.94,-4.08c3.21,1.64 4.28,5.01 6.89,7.41z" fill="#D0D5D6" id="svg_130" opacity="1"/>
  <path d="m366.7,515.62c-0.59,0.79 -1.26,1.07 -1.53,1.56c-0.48,0.91 0.01,2.62 -1.65,2.53c-1.94,-0.1 -1.38,-1.83 -1.5,-3.03c-0.1,-0.97 -0.03,-1.98 -1.49,-2.58c-0.37,-2.06 -0.39,-4.03 -0.4,-6c-0.01,-2 0.88,-2.97 3,-3c2.05,-0.03 2.93,0.6 2.93,2.81c0.01,2.43 0.47,4.86 0.64,7.71z" fill="#CAD0D1" id="svg_131" opacity="1"/>
  <path d="m486.88,445.61c0.3,2.96 -1.09,4.93 -2.77,7.17c-3.08,-0.38 -4.79,-2.81 -6.56,-4.8c-1.79,-2.01 1.37,-3.62 1.71,-5.72c0.24,-1.54 1.91,-0.05 2.84,0.43c1.57,0.82 3.1,1.73 4.78,2.92z" fill="#D4D9DA" id="svg_132" opacity="1"/>
  <path d="m347.92,516.6c-1.67,0.43 -3.26,0.43 -5.25,0.43c-0.11,-3.54 1.56,-6.83 1.47,-10.47c-0.05,-1.83 1.26,-2.46 3,-2.42c2.07,0.04 1.84,1.54 1.75,2.79c-0.22,3.09 -0.58,6.17 -0.97,9.67z" fill="#C5C9C9" id="svg_133" opacity="1"/>
  <path d="m499.07,431.93c0.6,2.78 4.85,5.09 1.04,8.8c-3.35,-1.49 -6.56,-3.31 -9.95,-5.43c1.93,-2.06 2.93,-5.06 6.29,-5.51c0.53,0.51 0.77,0.83 1.3,1.25c0.45,0.25 0.63,0.39 1.09,0.71c0.28,0.19 0.22,0.21 0.23,0.18z" fill="#DBDFDE" id="svg_134" opacity="1"/>
  <path d="m188.41,493.91c-3.17,0.42 -5.95,0.11 -5.98,-3.51c-0.02,-2.85 0.73,-5.79 5.18,-5.4c0.83,0 1.28,0 2.06,0c1.88,1.84 2.6,3.87 1.55,6.62c-0.99,0.97 -1.75,1.58 -2.81,2.29z" fill="#E6EBEA" id="svg_135" opacity="1"/>
  <path d="m315.35,505.8c-2.16,0.1 -4.1,0.52 -6.06,-1.29c0.8,-3.44 1.95,-6.4 3.08,-9.29c6.85,1.82 5.12,6.08 2.98,10.58z" fill="#CAD0D1" id="svg_136" opacity="1"/>
  <path d="m401.89,512.63c-2.42,0.86 -4.17,-0.56 -6.41,-1.58c-2.24,-2.18 -0.93,-5.16 -2.33,-7.48c-0.47,-0.76 0.18,-1.69 1.22,-1.48c1.57,0.31 3.72,-1.17 4.58,1.48c0.94,2.91 2,5.79 2.94,9.06z" fill="#C5C9C9" id="svg_137" opacity="1"/>
  <path d="m496.7,429.7c-2.89,0.84 -2.61,5.27 -6.35,5.29c-6.08,-0.47 -3.33,-4.36 -3.13,-7.58c0.74,-1 1.49,-0.89 2.57,-0.61c1.1,0.52 1.87,0.84 2.94,1.29c0.77,0.41 1.33,0.41 2.05,0.74c0.76,0.31 1.32,0.45 1.92,0.87z" fill="#E6EBEA" id="svg_138" opacity="1"/>
  <path d="m431.07,495.58c-1.12,1.36 -2.3,2.35 -3.81,3.39c-1.92,-1.62 -2.41,-3.82 -3.32,-5.84c-0.93,-2.1 0.2,-2.52 1.69,-3.47c1.85,-1.19 2.04,-0.22 2.71,1.09c0.78,1.53 2.87,2.31 2.73,4.83z" fill="#C5C9C9" id="svg_139" opacity="1"/>
  <path d="m53.6,352.52c0.07,1.67 1.69,2.37 1.88,3.66c-5.67,1.56 -10.12,0.35 -11.49,-3.49c3.06,-0.37 6.12,-0.36 9.61,-0.17z" fill="#EFF3F0" id="svg_140" opacity="1"/>
  <path d="m71.55,353.1c0.5,1.8 -0.04,3.02 -2.03,2.87c-2.2,-0.16 -4.16,0.75 -6.16,1.4c-3.61,1.17 -4.69,0 -3.41,-3.86c3.75,-0.39 7.45,-0.44 11.6,-0.41z" fill="#EFF3F0" id="svg_141" opacity="1"/>
  <path d="m278.75,569.22c2.66,1.19 3.53,4.68 7.34,4.32c1.1,-0.11 1.11,2.17 0.25,3.3c-0.92,1.22 -2.59,1.68 -3.15,0.1c-1.68,-4.69 -4.21,-1.37 -6.81,-0.95c0.45,-2.18 1.27,-4.37 2.37,-6.77z" fill="#E2E7E6" id="svg_142" opacity="1"/>
  <path d="m177.35,468.97c-5.18,-0.07 -6.54,-0.47 -10.78,-3c6.69,-3.37 5.04,-5.06 11.7,2.12c0.04,0.38 -0.28,0.61 -0.92,0.88z" fill="#EDF0EE" id="svg_143" opacity="1"/>
  <path d="m91.37,439.96c0.19,-2.11 -4.55,-3.89 -0.79,-6.19c2.13,-1.3 4.05,-0.88 5.64,0.98c0.62,0.73 1.13,1.56 1.73,2.69c-2.03,1.06 -4.12,1.79 -6.58,2.52z" fill="#EDF0EE" id="svg_144" opacity="1"/>
  <path d="m479.92,367.62c-3.48,-0.84 -1.26,-3.74 -1.92,-6.2c0,-1.17 0,-1.92 0,-3.04c0.52,-3.29 -1.15,-6.47 1.46,-9.27c0.43,1.62 0.49,3.34 0.54,5.49c1.03,3.43 0.28,6.51 0.21,9.96c-0.22,1.17 -0.22,1.93 -0.29,3.06z" fill="#F8FAF8" id="svg_145" opacity="1"/>
  <path d="m444.18,482.85c-0.64,1.96 -0.96,4.03 -3.81,4.14c-1.51,-1.49 -3.08,-3.01 -2.48,-4.99c0.49,-1.6 2.37,-2.6 3.82,-2.69c1.58,-0.09 1.86,1.9 2.47,3.54z" fill="#C5C9C9" id="svg_146" opacity="1"/>
  <path d="m244.01,361.39c1.28,-0.66 2.55,-0.9 3.81,-1.2c1.94,-0.47 3.33,0.26 3.69,2.16c0.47,2.41 -1.41,2.53 -3.09,2.63c-1.14,0.06 -2.28,0.02 -3.84,0.02c-0.48,-1.07 -0.53,-2.13 -0.57,-3.61z" fill="#F5F7F5" id="svg_147" opacity="1"/>
  <path d="m411.29,503.23c-1.76,-0.77 -0.97,-2.27 -1.64,-3.19c-0.87,-1.19 -2.07,-2.54 0.39,-3.51c2.16,-0.85 3.8,-1.01 4.09,1.98c0.05,0.6 0.52,1.16 0.83,2.11c-0.2,2.41 -1.2,3.4 -3.67,2.61z" fill="#C5C9C9" id="svg_148" opacity="1"/>
  <path d="m611.84,529.7c-4.19,1.59 -8.11,-0.52 -9.8,-5.46c4.07,-0.02 6.08,3.91 9.8,5.46z" fill="#DFE3E0" id="svg_149" opacity="1"/>
  <path d="m410.97,503.31c1.45,-0.16 2.69,-0.54 3.75,-2.11c0.94,1.21 1.61,2.62 2.29,4.38c-0.81,2.13 -2.22,2.61 -4.44,2.05c-0.79,-1.42 -1.18,-2.71 -1.6,-4.32z" fill="#C8CDCE" id="svg_150" opacity="1"/>
  <path d="m122.61,482.96c-0.04,3.95 -3.24,5.99 -8.37,5.14c1.95,-2.62 5.18,-3.52 8.37,-5.14z" fill="#EDF0EE" id="svg_151" opacity="1"/>
  <path d="m279.06,445.33c4.43,-2.51 4.43,-2.51 5.95,5.21c-1.93,-1.39 -3.88,-3.15 -5.95,-5.21z" fill="#E6EBEA" id="svg_152" opacity="1"/>
  <path d="m191.31,491.89c-0.65,-1.97 -0.98,-4.03 -1.31,-6.49c2.13,-0.62 3.95,-0.25 4.91,2.4c0.15,2.63 -2.21,2.71 -3.6,4.09z" fill="#EAEEEC" id="svg_153" opacity="1"/>
  <path d="m563.99,515.33c1.36,-1.3 2.76,-3.81 4.62,-1.27c1.02,1.4 0.12,2.81 -2.26,2.94c-1.01,-0.46 -1.63,-0.93 -2.36,-1.67z" fill="#DFE3E0" id="svg_154" opacity="1"/>
  <path d="m300.92,491.69c-1.48,0.14 -2.87,1.99 -4.76,0.46c0.73,-7.1 2.93,-1.68 4.76,-0.46z" fill="#CAD0D1" id="svg_155" opacity="1"/>
  <path d="m258.05,615.33c2.44,1.97 2.1,2.97 -1.87,4.86c0.44,-1.67 1.09,-3.11 1.87,-4.86z" fill="#DBDFDE" id="svg_156" opacity="1"/>
  <path d="m315.23,587.78c-2.02,-2.43 -1.33,-4.65 1.14,-6.71c-0.05,2.12 -0.43,4.31 -1.14,6.71z" fill="#D4D9DA" id="svg_157" opacity="1"/>
  <path d="m235.35,623.88c-1.4,-0.66 -3.75,-0.8 -3,-2.73c0.81,-2.06 2.59,0.36 4.27,-0.16c-0.09,0.92 -0.54,1.83 -1.27,2.89z" fill="#D0D5D6" id="svg_158" opacity="1"/>
  <path d="m387.26,631.39c2.05,1.19 3.73,2.84 1.21,5.54c-0.64,-1.68 -0.96,-3.42 -1.21,-5.54z" fill="#D6DBDC" id="svg_159" opacity="1"/>
  <path d="m396.07,517.39c2.72,0.97 2.86,3.05 1.4,5.54c-0.7,-1.68 -1.08,-3.41 -1.4,-5.54z" fill="#DBDFDE" id="svg_160" opacity="1"/>
  <path d="m245.34,549.89c-1.96,-2.05 -1.75,-3.35 1.52,-3.05c-0.29,1.15 -0.76,2.04 -1.52,3.05z" fill="#EAEEEC" id="svg_161" opacity="1"/>
  <path d="m480.26,364.68c-0.28,-2.72 -0.29,-5.73 -0.29,-9.19c1.38,2.59 0.36,5.78 0.29,9.19z" fill="#F1F4F2" id="svg_162" opacity="1"/>
  <path d="m648.81,464.74c0.05,1.27 -0.26,2.2 -1.48,2.05c-1.19,-0.14 -1.26,-1.17 -1.3,-2.49c0.86,-0.18 1.72,-0.01 2.78,0.44z" fill="#DFE3E0" id="svg_163" opacity="1"/>
  <path d="m317.78,577.61c-1.11,-0.54 -3.23,-0.7 -2.46,-2.74c0.38,-1 1.37,-0.44 2.39,0.01c0.26,0.87 0.23,1.63 0.07,2.73z" fill="#D4D9DA" id="svg_164" opacity="1"/>
  <path d="m70.77,388.86c-0.67,2.81 -2.02,2.67 -3.7,0.63c0.66,-0.38 1.39,-0.44 2.48,-0.51c0.58,-0.16 0.79,-0.29 1.22,-0.12z" fill="#F4F7F6" id="svg_165" opacity="1"/>
  <path d="m215.31,593.11c-0.68,-1.15 -1.68,-2.13 -0.89,-3.32c0.16,-0.25 0.96,-0.37 1.25,-0.2c1.36,0.82 0.48,2.07 0.52,3.56c0.02,0.4 -0.03,0.36 -0.03,0.39c-0.18,-0.09 -0.36,-0.21 -0.85,-0.43z" fill="#D2D7D8" id="svg_166" opacity="1"/>
  <path d="m341.88,593.64c-1.26,0.2 -2.42,-0.13 -2.47,-1.52c-0.04,-1.11 1.03,-0.99 2.12,-1.11c0.37,0.74 0.41,1.5 0.35,2.63z" fill="#D6DBDC" id="svg_167" opacity="1"/>
  <path d="m607.12,505.28c0,-1.11 0.17,-2.12 1.26,-1.85c1.02,0.25 1.71,1.04 0.78,2.43c-0.81,0.02 -1.37,-0.14 -2.04,-0.58z" fill="#E2E7E6" id="svg_168" opacity="1"/>
  <path d="m100.32,474.06c-0.23,-1.84 -0.33,-4.03 2.6,-1.59c-0.71,0.73 -1.49,1.13 -2.6,1.59z" fill="#EEF2F0" id="svg_169" opacity="1"/>
  <path d="m476.96,571.68c-1.48,0.21 -3.47,0.51 -2.05,-2.45c1.16,0.19 1.65,1.11 2.05,2.45z" fill="#E2E7E6" id="svg_170" opacity="1"/>
  <path d="m276.94,544.79c-0.93,0.05 -2.41,0.5 -2.36,-0.74c0.07,-1.48 1.25,-0.89 2.29,-0.18c0.19,0.26 0.14,0.71 0.07,0.92z" fill="#E2E7E6" id="svg_171" opacity="1"/>
  <path d="m651.02,511.21c-0.5,-0.66 -0.73,-1.53 -0.97,-2.86c2.55,-0.27 2.37,1 0.97,2.86z" fill="#D6DBDC" id="svg_172" opacity="1"/>
  <path d="m377.2,511.39c1.96,0.18 2.5,1.03 0.42,2.51c-0.36,-0.67 -0.43,-1.41 -0.42,-2.51z" fill="#D6DBDC" id="svg_173" opacity="1"/>
  <path d="m149.79,523.18c-0.84,-0.21 -1.58,-0.63 -1.29,-1.33c0.39,-1 1.28,-0.8 2.28,-0.12c-0.11,0.62 -0.43,1 -0.99,1.45z" fill="#E6EBEA" id="svg_174" opacity="1"/>
  <path d="m64.67,389.21c0.01,1.66 -0.84,2.14 -2.49,1.03c0.37,-1.17 1.33,-0.97 2.49,-1.03z" fill="#F4F7F6" id="svg_175" opacity="1"/>
  <path d="m478.99,340.77c-0.2,1.02 -0.38,2.27 -1.38,1.59c-1.03,-0.7 -0.5,-1.71 0.9,-2.3c0.37,0.11 0.43,0.28 0.48,0.71z" fill="#F8FAF8" id="svg_176" opacity="1"/>
  <path d="m383.83,511.65c-1.82,0.1 -1.79,-0.86 -0.92,-2.4c1.03,0.27 0.85,1.23 0.92,2.4z" fill="#D6DBDC" id="svg_177" opacity="1"/>
  <path d="m110.71,489.26c0.12,0.72 0.16,1.62 -0.26,2.13c-0.46,0.55 -1.07,0.08 -1.38,-0.86c0.41,-0.61 0.88,-0.93 1.64,-1.27z" fill="#EDF0EE" id="svg_178" opacity="1"/>
  <path d="m236.03,564.03c-0.44,0.94 -0.92,1.85 -1.69,2.89c-0.29,0.13 -0.36,0.06 -0.4,0.02c-0.89,-1.59 -0.85,-2.82 1.56,-3.18c0.41,0.17 0.49,0.23 0.53,0.27z" fill="#E2E7E6" id="svg_179" opacity="1"/>
  <path d="m297.81,597.12c0.95,0.02 2.01,0.01 1.65,1.14c-0.24,0.77 -1.03,0.39 -1.82,-0.06c-0.41,-0.47 -0.34,-0.75 0.17,-1.08z" fill="#DBDFDE" id="svg_180" opacity="1"/>
  <path d="m208.81,494.11c1.63,1.93 -0.03,1.72 -1.49,1.89c0.19,-0.6 0.69,-1.21 1.49,-1.89z" fill="#E5EAE8" id="svg_181" opacity="1"/>
  <path d="m474.43,394.94c-1.36,-0.62 -1.46,-1.29 0.13,-1.9c0.25,0.57 0.2,1.17 -0.13,1.9z" fill="#F1F4F2" id="svg_182" opacity="1"/>
  <path d="m230.87,631.78c-0.71,0.1 -1.49,0 -1.42,-0.76c0.07,-0.87 0.7,-0.82 1.45,-0.14c0.15,0.23 0.09,0.7 -0.03,0.9z" fill="#D4D9DA" id="svg_183" opacity="1"/>
  <path d="m656.94,467.89c-0.12,0.83 -0.1,1.93 -1.18,1.51c-0.68,-0.26 -0.25,-0.99 0.55,-1.53c0.27,-0.14 0.57,-0.12 0.63,0.02z" fill="#E6EBEA" id="svg_184" opacity="1"/>
  <path d="m470.99,458.04c-0.09,0.62 -0.32,1.6 -0.97,1.35c-0.9,-0.35 -0.32,-0.96 0.63,-1.35c0.34,-0.05 0.33,0.03 0.34,0z" fill="#D4D9DA" id="svg_185" opacity="1"/>
  <path d="m71.32,389.11c-0.51,0.03 -0.69,0 -1.14,-0.09c0.29,-1.1 1.29,-0.89 2.53,-0.88c0.34,0.09 0.35,0.49 0.32,0.68c-0.48,0.21 -0.93,0.22 -1.71,0.29z" fill="#C5C9C9" id="svg_186" opacity="1"/>
  <path d="m489.96,426.71c-0.54,0.29 -1.23,0.3 -2.27,0.31c0.1,-1.7 1.15,-0.98 2.27,-0.31z" fill="#DBDFDE" id="svg_187" opacity="1"/>
  <path d="m494.84,428.75c-0.39,0.13 -0.92,0.01 -1.63,-0.32c0.37,-0.12 0.93,-0.03 1.63,0.32z" fill="#DBDFDE" id="svg_188" opacity="1"/>
  <path d="m82.72,462.3c0.06,0.24 -0.15,0.41 -0.58,0.61c-0.08,-0.23 0.1,-0.47 0.58,-0.61z" fill="#EEF2F0" id="svg_189" opacity="1"/>
  <path d="m473.86,459.8c-0.23,0.21 -0.47,0.1 -0.75,-0.31c0.25,-0.34 0.52,-0.25 0.75,0.31z" fill="#D4D9DA" id="svg_190" opacity="1"/>
  <path d="m159.26,447.97c-0.02,-0.16 0.22,-0.33 0.58,-0.38c-0.02,0.21 -0.17,0.29 -0.58,0.38z" fill="#EEF2F0" id="svg_191" opacity="1"/>
  <path d="m476.89,330.75c-0.44,0.07 -0.55,-0.19 -0.25,-0.63c0.19,0.06 0.25,0.22 0.25,0.63z" fill="#F1F4F2" id="svg_192" opacity="1"/>
  <path d="m395.13,514.29c0.33,-0.12 0.55,0.11 0.75,0.63c-0.21,0.03 -0.5,-0.17 -0.75,-0.63z" fill="#DBDFDE" id="svg_193" opacity="1"/>
  <path d="m499.03,431.69c-0.22,0.19 -0.5,0.06 -0.87,-0.35c0.17,-0.09 0.48,0 0.87,0.35z" fill="#E6EBEA" id="svg_194" opacity="1"/>
  <path d="m475.31,392.05c-0.21,-0.24 -0.07,-0.52 0.35,-0.9c0.1,0.18 0,0.49 -0.35,0.9z" fill="#F1F4F2" id="svg_195" opacity="1"/>
  <path d="m293.75,611.02c0.19,0.2 0.07,0.46 -0.3,0.82c-0.37,-0.23 -0.29,-0.51 0.3,-0.82z" fill="#D0D5D6" id="svg_196" opacity="1"/>
  <path d="m185.3,580.05c-0.2,-0.23 -0.06,-0.51 0.36,-0.89c0.09,0.17 -0.01,0.48 -0.36,0.89z" fill="#DBDFDE" id="svg_197" opacity="1"/>
  <path d="m35.73,352.15c0.18,0.29 0.04,0.49 -0.32,0.74c-0.09,-0.2 -0.01,-0.5 0.32,-0.74z" fill="#EFF3F0" id="svg_198" opacity="1"/>
  <path d="m256.3,585.04c-0.2,-0.23 -0.06,-0.51 0.35,-0.88c0.1,0.17 0,0.48 -0.35,0.88z" fill="#DBDFDE" id="svg_199" opacity="1"/>
  <path d="m35.16,372.27c0.29,-0.18 0.49,-0.04 0.73,0.33c-0.2,0.08 -0.49,0 -0.73,-0.33z" fill="#EFF3F0" id="svg_200" opacity="1"/>
  <path d="m270.59,333.99c0.37,0.46 0.35,0.92 0.19,1.7c-4.16,1.19 -2.56,5.64 -5.18,8.44c-0.41,-3.81 -2.11,-6.99 -0.81,-9.96c1.1,-2.49 3.57,0.02 5.8,-0.18z" fill="#F5F7F5" id="svg_202" opacity="1"/>
  <path d="m458.66,327.53c-0.74,-0.9 -1.26,-1.55 -1.58,-2.29c-0.46,-1.08 -2.46,-1.63 -1.26,-3.25c0.76,-1.03 1.96,-1.11 3.12,-0.78c1.77,0.51 2.1,1.93 2.03,3.48c-0.07,1.36 0.44,3.2 -2.31,2.84z" fill="#F1F4F2" id="svg_203" opacity="1"/>
  <path d="m256.83,320.77c-0.66,-0.1 -1.12,-0.17 -1.21,-0.39c-0.87,-2.04 -1.28,-4.11 0.69,-5.76c0.73,-0.62 1.7,-0.19 2.06,0.59c0.96,2.07 1.22,4.1 -1.54,5.56z" fill="#F5F7F5" id="svg_204" opacity="1"/>
  <path d="m277.46,311.68c-0.87,1.02 -1.73,1.58 -2.66,0.87c-0.9,-0.7 -0.3,-1.53 0.36,-1.94c1,-0.62 2.14,-1.04 2.3,1.07z" fill="#F5F7F5" id="svg_205" opacity="1"/>
  <path d="m451.36,325.99c-0.65,-0.47 -0.95,-0.95 -1.26,-1.72c1.12,-0.01 2.79,-0.94 3.27,0.67c0.31,1.04 -0.96,0.9 -2.01,1.05z" fill="#F1F4F2" id="svg_206" opacity="1"/>
  <path d="m268.74,343.13c0.21,0.31 0.21,0.76 0.11,1.53c-0.68,-0.19 -0.86,-0.75 -0.11,-1.53z" fill="#F5F7F5" id="svg_207" opacity="1"/>
  <path d="m269.68,339.1c0.17,0.08 0.21,0.24 0.15,0.64c-0.44,0.02 -0.51,-0.24 -0.15,-0.64z" fill="#F5F7F5" id="svg_208" opacity="1"/>
  <path d="m449.38,321.86c-0.2,-0.03 -0.28,-0.18 -0.38,-0.59c0.15,-0.02 0.33,0.22 0.38,0.59z" fill="#F1F4F2" id="svg_209" opacity="1"/>
  <path d="m271.53,325.55c-0.05,0.03 0.05,-0.03 0,0z" fill="#F5F7F5" id="svg_210" opacity="1"/>
  <path d="m361.02,457.13c9.29,-0.17 18.26,-2.52 27.31,-4.23c2.07,-0.39 3.95,-1.77 6.29,-2.73c0.73,0.33 0.88,0.76 0.6,1.55c-7.99,4.39 -16.29,6.28 -25.06,6.31c-2.01,0.01 -3.82,-0.28 -5.66,1.89c-1.57,1.85 -2.73,-0.86 -3.48,-2.79z" fill="#E5EAE8" id="svg_211" opacity="1"/>
  <path d="m346.71,455.61c4.07,0.16 7.86,0.47 12.02,0.93c-0.73,2.57 -8.73,6.99 -10.87,6.2c-2.26,-0.83 -1.89,-3.29 -2.83,-5.35c0.24,-1.01 0.79,-1.35 1.68,-1.78z" fill="#E5EAE8" id="svg_212" opacity="1"/>
  <path d="m328.73,451.96c1.98,-0.36 3.2,0.66 4.88,1.1c0.44,0.38 0.59,0.68 0.56,1.46c-5.93,0.09 -12.2,1.23 -16.13,-5.16c3.37,0.72 6.37,3.25 10.69,2.6z" fill="#E5EAE8" id="svg_213" opacity="1"/>
  <path d="m346.59,455.31c0.26,0.96 -0.17,1.52 -1.33,1.68c-2.79,0 -5.26,-0.11 -7.19,-2.52c2.56,0.79 5.38,0.38 8.52,0.84z" fill="#E6EBEA" id="svg_214" opacity="1"/>
  <path d="m395.35,451.97c-0.35,-0.38 -0.35,-0.79 -0.35,-1.52c1.75,-1.03 3.51,-1.75 5.63,-2.46c-0.21,2.92 -2.95,2.91 -5.28,3.98z" fill="#E6EBEA" id="svg_215" opacity="1"/>
  <path d="m334.31,454.97c-0.33,-0.28 -0.34,-0.59 -0.38,-1.37c0.63,-0.39 1.29,-0.32 2.04,0c-0.39,0.61 -0.86,0.98 -1.66,1.37z" fill="#E6EBEA" id="svg_216" opacity="1"/>
  <path d="m91.69,425.03c2.18,0.35 2.63,1.45 1.65,2.81c-1.12,1.55 -2.89,1.32 -4.49,0.89c-1.01,-0.27 -1.83,-1.12 -1.6,-2.17c0.53,-2.39 2.6,-1.27 4.44,-1.53z" fill="#EDF0EE" id="svg_217" opacity="1"/>
  <path d="m84.62,439.55c-1.8,0.43 -2.68,0.04 -2,-1.65c0.45,-1.11 1.24,-2.34 2.57,-1.47c1.28,0.84 0.64,2.02 -0.57,3.12z" fill="#EDF0EE" id="svg_218" opacity="1"/>
  <path d="m562.55,505.79c-0.75,1.8 -0.64,3.87 -2.91,3.98c-1.33,0.06 -1.57,-1 -1.6,-2.05c-0.05,-1.66 -0.33,-3.58 1.59,-4.34c1.68,-0.67 2.93,0.04 2.92,2.41z" fill="#DFE3E0" id="svg_219" opacity="1"/>
  <path d="m161.26,446.42c-2.4,-0.81 -4.11,-2.52 -6.07,-4.62c4.11,-1.64 6.13,-0.72 6.09,4.12c0.11,0.45 -0.01,0.45 -0.02,0.5z" fill="#EEF2F0" id="svg_220" opacity="1"/>
  <path d="m163.38,474.46c-0.79,0.22 -1.08,-0.06 -0.96,-0.67c0.03,-0.13 0.21,-0.3 0.34,-0.32c0.62,-0.1 0.88,0.2 0.62,0.99z" fill="#EDF0EE" id="svg_221" opacity="1"/>
  <path d="m368.45,592.53c-0.03,-0.05 0.03,0.05 0,0z" fill="#D9DEDD" id="svg_222" opacity="1"/>
  <path d="m246.88,535.69c-0.66,1.34 -1.34,2.84 -2.52,1.24c-0.72,-0.99 -0.86,-2.81 0.59,-3.49c1.58,-0.75 1.93,0.59 1.93,2.25z" fill="#E2E7E6" id="svg_223" opacity="1"/>
  <path d="m280.55,659.47c0.03,0.05 -0.03,-0.06 0,0z" fill="#D0D5D6" id="svg_224" opacity="1"/>
  <path d="m80.53,464.55c-0.05,0.03 0.06,-0.03 0,0z" fill="#EEF2F0" id="svg_225" opacity="1"/>
  <path d="m267.62,627.54c0.79,-0.22 1.08,0.06 0.96,0.67c-0.03,0.13 -0.21,0.31 -0.34,0.32c-0.62,0.1 -0.88,-0.2 -0.62,-0.99z" fill="#CAD0D1" id="svg_226" opacity="1"/>
  <path d="m268.37,373.08c0.26,0.07 0.37,0.23 0.39,0.68c-0.24,-0.01 -0.4,-0.29 -0.39,-0.68z" fill="#C5C9C9" id="svg_227" opacity="1"/>
  <path d="m215,593c-0.09,0.03 -0.18,0.07 -0.13,0.05c0.13,-0.05 0.13,-0.05 0.13,-0.05z" fill="#D2D7D8" id="svg_228" opacity="1"/>
  <path d="m136.71,484.81c-1.54,0.08 -2.75,-0.06 -2.36,-1.69c0.28,-1.17 1.41,-1.22 2.32,-0.9c1.48,0.53 1.44,1.47 0.04,2.59z" fill="#E5EAE8" id="svg_229" opacity="1"/>
  <path d="m235.9,563.58c-1.35,0.51 -1.92,1.34 -1.96,2.99c-2.52,0.39 -5.2,0.67 -5.9,-2.61c-0.51,-2.43 -2.6,-5.41 0.22,-7.25c3.34,-2.18 3.57,2.2 5.32,3.44c1.03,0.73 2.06,1.67 2.32,3.43z" fill="#DFE3E0" id="svg_230" opacity="1"/>
  <path d="m456.37,343.94c-1.17,-0.53 -1.14,-1.43 -1.17,-2.61c0.99,-0.23 2.11,-0.48 2.54,0.71c0.34,0.93 -0.17,1.52 -1.37,1.9z" fill="#F8FAF8" id="svg_231" opacity="1"/>
  <path d="m365.51,513.55c-0.05,0.04 0.06,-0.03 0,0z" fill="#D9DEDD" id="svg_232" opacity="1"/>
  <path d="m291.7,363.22c-1.68,-27.01 14.07,-56.55 40.71,-67.41c24.32,-9.91 47.24,-7.66 69.09,5.9c12.36,7.68 20.84,19.09 26.4,32.96c-1.57,3.26 -3.69,2.39 -5.8,1.12c-1.26,-0.75 -2.27,-1.94 -3.67,-2.47c-2.72,-1.02 -4.77,0.46 -4.38,3.08c0.9,5.95 -0.22,7.22 -6.95,7.46c-1.85,-0.81 -2.43,-2.23 -2.99,-3.6c-11.35,-27.39 -44.89,-31.44 -66.23,-19.65c-8.77,4.84 -14.59,11.75 -18.39,20.73c-0.52,1.22 -0.97,2.48 -2.22,3.69c-0.67,0.45 -1.45,0.31 -1.43,0.6c0.04,0.64 -0.24,-0.13 0.49,0.55c0.2,1.19 -0.13,1.84 -1.17,2.46c-4.48,-0.06 -8.55,0.78 -12.66,0.78c-2.88,0 -4.76,1.07 -4.73,4.32c0.03,3.11 -2.06,5.5 -3,8.29c-0.4,1.22 -1.43,1.75 -3.07,1.19z" fill="#F8FAF8" id="svg_233" opacity="1"/>
  <path d="m351.74,430.2c-0.94,-0.11 -1.56,-0.18 -2.47,-0.35c-0.68,-0.32 -1.06,-0.52 -1.75,-0.58c-24.34,-4.38 -39.98,-19.22 -50.31,-40.92c1.71,-3.95 3.87,-3.33 6.18,-1.01c0.94,0.95 1.49,2.17 2.13,3.33c2.8,5.17 2.81,5.16 6.96,1.52c2.99,-2.62 6.43,-2.54 9.84,0.4c1.37,1.18 2.46,2.77 5,1.98c1.73,0.31 2.82,1.1 3.71,2.08c9.25,10.27 21.77,10.93 34.25,11.6c1.84,0.1 3.64,0 5.6,1.14c0.32,0.4 0.4,0.69 0.36,0.7c-5.05,2.21 -5.8,8.25 -9.96,11.22c-1.3,0.93 -1.36,2.1 -1.35,3.43c0.01,2 -0.19,3.94 -1.69,5.87c-1.33,0.28 -2.41,0.3 -3.88,0.22c-1.01,-0.35 -1.69,-0.34 -2.62,-0.63z" fill="#EDF0EE" id="svg_234" opacity="1"/>
  <path d="m327.15,394.9c-2.06,3.19 -3.38,1.42 -4.74,-0.19c-4.15,-4.9 -8.16,-4.41 -10.42,1.33c-0.31,0.79 -0.42,1.79 -1.47,1.5c-1.59,-0.43 -3.33,-0.96 -4.21,-2.43c-1.09,-1.82 -1.65,-3.98 -2.79,-5.76c-1.33,-2.05 -2.9,-4.4 -5.98,-1.42c-0.71,-0.74 -1.11,-1.54 -1.51,-2.68c-0.33,-0.68 -0.53,-1.09 -0.68,-1.9c-0.19,-0.48 -0.26,-0.64 -0.4,-1.05c-1.25,-5.71 -1.06,-11.43 -3.29,-17.02c-0.28,-0.73 -0.36,-1.17 -0.35,-1.96c4.11,-2.15 4.74,-6.36 4.8,-9.61c0.09,-4.32 1.65,-6.06 5.4,-5.61c4.27,0.51 8.43,-2.12 13.05,-0.16c1.84,1.43 1.17,3.12 1.05,4.73c-0.32,4.29 -0.17,8.56 0.16,12.87c0.73,9.55 4.08,17.98 9.93,25.49c0.81,1.04 1.59,2.14 1.45,3.87z" fill="#F5F7F5" id="svg_235" opacity="1"/>
  <path d="m430.47,374.75c-3.17,19.83 -14.27,34.18 -30.4,45.07c-1.09,0.74 -2.26,1.36 -3.73,2.09c-2.65,-2.27 -3.99,-4.47 -1.13,-7.57c2.63,-2.85 1.38,-6.64 1.29,-10.04c-0.05,-1.84 -1.48,-1.27 -2.57,-0.71c-1.86,0.96 -3.7,1.74 -5.33,-0.89c-0.12,-0.68 -0.18,-1.11 0.03,-1.3c6.95,-6.41 11.97,-14.36 17.8,-22.11c2.59,-2.18 4.37,-5.05 8.02,-4.61c5.14,-10.06 10.51,0.24 16.02,0.07z" fill="#EAEEEC" id="svg_236" opacity="1"/>
  <path d="m430.84,374.59c-3.6,0.02 -7.92,2.1 -9.59,-3.43c-0.5,-1.65 -2.47,-0.93 -2.93,0.57c-1.02,3.32 -2.11,5.68 -6.49,4.49c-2.29,-0.62 -1.75,3.96 -4.96,3.79c-1.32,-1.77 -0.76,-3.57 -0.33,-5.33c2.23,-9.05 2.84,-18.09 -0.05,-27.13c-0.41,-1.28 -0.58,-2.61 0.3,-4.24c2.16,-0.17 3.94,-0.44 5.53,-1.51c1.59,-1.08 2.41,-2.68 1.01,-4.18c-1.2,-1.28 -3.65,-1.78 -0.87,-3.86c2.21,-1.65 4,-4.17 7.3,-1.58c2.13,1.67 3.72,5.25 7.84,2.99c5.87,12.56 5.47,25.72 3.24,39.42z" fill="#F3F6F3" id="svg_237" opacity="1"/>
  <path d="m388.69,401.74c2.32,4.09 4.3,0.88 5.77,-0.12c2.99,-2.02 3.65,-1.08 3.56,1.99c-0.09,2.81 0.03,5.62 -0.05,8.43c-0.03,0.95 -0.17,2.55 -0.66,2.73c-4.16,1.49 -1.93,4.11 -1.32,6.82c-8.27,5.73 -17.47,8.32 -27.59,9.33c-0.59,-0.16 -0.75,-0.25 -1.15,-0.2c-2.95,0.2 -5.65,0.25 -8.81,0.22c-0.62,-2.95 0.97,-5.7 -0.26,-8.72c-0.63,-1.54 0.92,-2.23 2.41,-2.22c1.56,0.02 3.11,-1.05 2.82,-2.13c-1.77,-6.78 4.87,-5.36 7.55,-8.27c5.36,-4.18 11.18,-6.61 17.73,-7.86z" fill="#E5EAE8" id="svg_238" opacity="1"/>
  <path d="m291.38,365.41c1.42,-0.22 3.93,-0.74 3.33,1.33c-1.49,5.14 1.58,9.86 0.47,15.07c-3.14,-4.81 -3.07,-10.5 -3.8,-16.4z" fill="#F8FAF8" id="svg_239" opacity="1"/>
  <path d="m295.19,383.3c0.29,0.18 0.53,0.63 0.81,1.35c-0.27,-0.18 -0.56,-0.63 -0.81,-1.35z" fill="#F8FAF8" id="svg_240" opacity="1"/>
  <path d="m351.67,430.4c0.42,-0.19 1.09,-0.15 2.03,0.11c-0.42,0.19 -1.1,0.16 -2.03,-0.11z" fill="#E5EAE8" id="svg_241" opacity="1"/>
  <path d="m367.26,430.93c0.01,-0.16 0.27,-0.27 0.62,-0.22c0.1,0.14 -0.38,0.28 -0.62,0.22z" fill="#EDF0EE" id="svg_242" opacity="1"/>
  <path d="m347.48,429.59c0.16,-0.2 0.57,-0.21 1.24,-0.03c-0.16,0.2 -0.58,0.21 -1.24,0.03z" fill="#E5EAE8" id="svg_243" opacity="1"/>
  <path d="m315.8,345.06c0.17,0.1 0.17,0.28 0.06,0.69c-0.22,0.04 -0.35,-0.14 -0.42,-0.35c-0.02,-0.06 0.13,-0.17 0.36,-0.34z" fill="#F5F7F5" id="svg_245" opacity="1"/>
  <path d="m309.74,391.84c-0.89,1.17 -1.78,1.27 -2.36,0.21c-0.2,-0.36 0.07,-1.39 0.42,-1.59c1.01,-0.58 1.78,-0.16 1.94,1.38z" fill="#EDF0EE" id="svg_246" opacity="1"/>
  <path d="m404.28,412.78c-2.35,-0.66 -2.27,-2.59 -2.86,-4.06c-0.87,-2.17 0.35,-3.86 2.22,-4.2c2.38,-0.43 2.41,1.81 2.3,3.42c-0.11,1.66 0.97,3.74 -1.66,4.84z" fill="#E5EAE8" id="svg_247" opacity="1"/>
  <path d="m407.45,410.53c-0.03,-0.05 0.03,0.05 0,0z" fill="#E5EAE8" id="svg_248" opacity="1"/>
 </g>
</svg>